<mxfile host="app.diagrams.net" modified="2023-02-19T05:37:41.250Z" agent="5.0 (Macintosh; Intel Mac OS X 10_15_7) AppleWebKit/537.36 (KHTML, like Gecko) Chrome/109.0.0.0 Safari/537.36" etag="VoqnEChojPi1eQjp7W4h" version="20.8.20" type="github">
  <diagram name="第 1 页" id="XZqSUlOGn2es3P8jVw8O">
    <mxGraphModel dx="954" dy="591" grid="1" gridSize="10" guides="1" tooltips="1" connect="1" arrows="1" fold="1" page="1" pageScale="1" pageWidth="827" pageHeight="1169" math="0" shadow="0">
      <root>
        <mxCell id="0" />
        <mxCell id="1" parent="0" />
        <mxCell id="XgiGHtJVw0pjwODDl1bd-1" value="" style="shape=image;verticalLabelPosition=bottom;labelBackgroundColor=default;verticalAlign=top;aspect=fixed;imageAspect=0;image=data:image/png,iVBORw0KGgoAAAANSUhEUgAAAPgAAAD4CAYAAADB0SsLAAAMa2lDQ1BJQ0MgUHJvZmlsZQAASImVVwdYU8kWnluSkJDQAghICb0JIjWAlBBa6B3BRkgCCSXGhKBiL4sKrgURUazoKohiWwGxY1cWxd4XCyrKuqiLDZU3IQFd95XvnXxz758zZ/5T7txyAND8wJVI8lAtAPLFBdKEsCDGmLR0BukZQOBPD9CBOZcnk7Di4qIAlMHz3+XdDWgL5aqTguuf8/9VdPgCGQ8AZBzEmXwZLx/i4wDg63gSaQEARIXeckqBRIHnQKwrhQFCXK7A2Upco8CZSnx4wCYpgQ3xZQDUqFyuNBsAjXtQzyjkZUMejc8Qu4j5IjEAmiMg9ucJuXyIFbGPyM+fpMCVENtBewnEMB7AzPyOM/tv/JlD/Fxu9hBW5jUgasEimSSPO+3/LM3/lvw8+aAPGzioQml4giJ/WMNbuZMiFZgKcbc4MyZWUWuIP4j4yroDgFKE8vBkpT1qzJOxYf2APsQufG5wJMTGEIeK82KiVPrMLFEoB2K4W9CpogJOEsQGEC8SyEISVTabpJMSVL7Qhiwpm6XSn+NKB/wqfD2Q5yazVPxvhAKOih/TKBImpUJMgdiqUJQSA7EGxM6y3MRIlc3oIiE7ZtBGKk9QxG8FcYJAHBak5McKs6ShCSr7knzZYL7YJqGIE6PC+wqESeHK+mCneNyB+GEu2GWBmJU8yCOQjYkazIUvCA5R5o49F4iTE1U8HyQFQQnKtThFkhenssctBHlhCr0FxO6ywkTVWjylAG5OJT+eJSmIS1LGiRflcCPilPHgy0EUYINgwAByODLBJJADRG3djd3wn3ImFHCBFGQDAXBSaQZXpA7MiOExERSBPyASANnQuqCBWQEohPovQ1rl0QlkDcwWDqzIBU8hzgeRIA/+lw+sEg95SwFPoEb0D+9cOHgw3jw4FPP/Xj+o/aZhQU2USiMf9MjQHLQkhhCDieHEUKI9boT74754FDwGwuGKM3HvwTy+2ROeEtoJjwjXCR2E2xNF86Q/RBkNOiB/qKoWmd/XAreBnB54EO4H2SEzro8bASfcHfph4QHQswfUslVxK6rC+IH7bxl8dzVUdmQXMkoeRg4k2/24UsNBw2OIRVHr7+ujjDVzqN7soZkf/bO/qz4fniN/tMQWYfuxs9gJ7Dx2GGsEDOwY1oS1YkcUeGh3PRnYXYPeEgbiyYU8on/4G7yyikrKXOpculw+K+cKBFMLFDcee5JkmlSULSxgsODbQcDgiHnOIxiuLq5uACjeNcrH19v4gXcIot/6TTf/dwD8jvX39x/6pos4BsBeL3j7H/yms2MCoK0OwLmDPLm0UKnDFQcCfEpowjvNEJgCS2AH83EFnsAXBIIQEAFiQRJIAxNg9EK4z6VgCpgB5oJiUAqWg1VgLdgItoAasAvsA43gMDgBzoCL4DK4Du7C3dMJXoIe8A70IQhCQmgIHTFEzBBrxBFxRZiIPxKCRCEJSBqSgWQjYkSOzEDmI6VIGbIW2YzUInuRg8gJ5DzSjtxGHiJdyBvkE4qhVFQXNUFt0JEoE2WhkWgSOh7NRiejRegCdClaiVajO9EG9AR6Eb2OdqAv0V4MYOqYPmaOOWFMjI3FYulYFibFZmElWAVWjdVjzfA6X8U6sG7sI07E6TgDd4I7OBxPxnn4ZHwWvgRfi9fgDfgp/Cr+EO/BvxJoBGOCI8GHwCGMIWQTphCKCRWEbYQDhNPwXuokvCMSifpEW6IXvBfTiDnE6cQlxPXE3cTjxHbiY2IviUQyJDmS/EixJC6pgFRMWkPaSTpGukLqJH1QU1czU3NVC1VLVxOrzVOrUNuhdlTtitoztT6yFtma7EOOJfPJ08jLyFvJzeRL5E5yH0WbYkvxoyRRcihzKZWUesppyj3KW3V1dQt1b/V4dZH6HPVK9T3q59Qfqn+k6lAdqGzqOKqcupS6nXqcepv6lkaj2dACaem0AtpSWi3tJO0B7YMGXcNZg6PB15itUaXRoHFF45UmWdNak6U5QbNIs0Jzv+YlzW4tspaNFluLqzVLq0rroNZNrV5tuvYo7VjtfO0l2ju0z2s/1yHp2OiE6PB1Fuhs0Tmp85iO0S3pbDqPPp++lX6a3qlL1LXV5ejm6Jbq7tJt0+3R09Fz10vRm6pXpXdEr0Mf07fR5+jn6S/T36d/Q//TMJNhrGGCYYuH1Q+7Muy9wXCDQAOBQYnBboPrBp8MGYYhhrmGKwwbDe8b4UYORvFGU4w2GJ026h6uO9x3OG94yfB9w+8Yo8YOxgnG0423GLca95qYmoSZSEzWmJw06TbVNw00zTEtNz1q2mVGN/M3E5mVmx0ze8HQY7AYeYxKxilGj7mxebi53HyzeZt5n4WtRbLFPIvdFvctKZZMyyzLcssWyx4rM6toqxlWdVZ3rMnWTGuh9Wrrs9bvbWxtUm0W2jTaPLc1sOXYFtnW2d6zo9kF2E22q7a7Zk+0Z9rn2q+3v+yAOng4CB2qHC45oo6ejiLH9Y7tIwgjvEeIR1SPuOlEdWI5FTrVOT101neOcp7n3Oj8aqTVyPSRK0aeHfnVxcMlz2Wry91ROqMiRs0b1TzqjauDK8+1yvWaG80t1G22W5Pba3dHd4H7BvdbHnSPaI+FHi0eXzy9PKWe9Z5dXlZeGV7rvG4ydZlxzCXMc94E7yDv2d6HvT/6ePoU+Ozz+dPXyTfXd4fv89G2owWjt45+7Gfhx/Xb7Nfhz/DP8N/k3xFgHsANqA54FGgZyA/cFviMZc/KYe1kvQpyCZIGHQh6z/Zhz2QfD8aCw4JLgttCdEKSQ9aGPAi1CM0OrQvtCfMImx52PJwQHhm+Ivwmx4TD49RyeiK8ImZGnIqkRiZGro18FOUQJY1qjkajI6JXRt+LsY4RxzTGglhO7MrY+3G2cZPjDsUT4+Piq+KfJoxKmJFwNpGeODFxR+K7pKCkZUl3k+2S5cktKZop41JqU96nBqeWpXaMGTlm5piLaUZporSmdFJ6Svq29N6xIWNXje0c5zGueNyN8bbjp44/P8FoQt6EIxM1J3In7s8gZKRm7Mj4zI3lVnN7MzmZ6zJ7eGzeat5LfiC/nN8l8BOUCZ5l+WWVZT3P9stemd0lDBBWCLtFbNFa0euc8JyNOe9zY3O35/bnpebtzlfLz8g/KNYR54pPTTKdNHVSu8RRUizpmOwzedXkHmmkdJsMkY2XNRXowo/6Vrmd/Cf5w0L/wqrCD1NSpuyfqj1VPLV1msO0xdOeFYUW/TIdn86b3jLDfMbcGQ9nsmZunoXMypzVMtty9oLZnXPC5tTMpczNnfvbPJd5ZfP+mp86v3mByYI5Cx7/FPZTXbFGsbT45kLfhRsX4YtEi9oWuy1es/hrCb/kQqlLaUXp5yW8JRd+HvVz5c/9S7OWti3zXLZhOXG5ePmNFQErasq0y4rKHq+MXtlQzigvKf9r1cRV5yvcKzaupqyWr+6ojKpsWmO1Zvmaz2uFa69XBVXtXme8bvG69+v5669sCNxQv9FkY+nGT5tEm25tDtvcUG1TXbGFuKVwy9OtKVvP/sL8pXab0bbSbV+2i7d31CTUnKr1qq3dYbxjWR1aJ6/r2jlu5+Vdwbua6p3qN+/W3126B+yR73mxN2PvjX2R+1r2M/fX/2r967oD9AMlDUjDtIaeRmFjR1NaU/vBiIMtzb7NBw45H9p+2Pxw1RG9I8uOUo4uONp/rOhY73HJ8e4T2Scet0xsuXtyzMlrp+JPtZ2OPH3uTOiZk2dZZ4+d8zt3+LzP+YMXmBcaL3pebGj1aD3wm8dvB9o82xoueV1quux9ubl9dPvRKwFXTlwNvnrmGufaxesx19tvJN+4dXPczY5b/FvPb+fdfn2n8E7f3Tn3CPdK7mvdr3hg/KD6d/vfd3d4dhx5GPyw9VHio7uPeY9fPpE9+dy54CntacUzs2e1z12fH+4K7br8YuyLzpeSl33dxX9o/7Huld2rX/8M/LO1Z0xP52vp6/43S94avt3+l/tfLb1xvQ/e5b/re1/ywfBDzUfmx7OfUj8965vymfS58ov9l+avkV/v9ef390u4Uu7ApwAGB5qVBcCb7QDQ0gCgw76NMlbZCw4IouxfBxD4T1jZLw6IJwD18Ps9vht+3dwEYM9W2H5Bfk3Yq8bRAEjyBqib29BQiSzLzVXJRYV9CuFBf/9b2LORVgLwZXl/f191f/+XLTBY2DseFyt7UIUQYc+wifMlMz8T/BtR9qff5fjjGSgicAc/nv8FyaKQ1n2k128AAABsZVhJZk1NACoAAAAIAAQBGgAFAAAAAQAAAD4BGwAFAAAAAQAAAEYBKAADAAAAAQACAACHaQAEAAAAAQAAAE4AAAAAAAAAkAAAAAEAAACQAAAAAQACoAIABAAAAAEAAAD4oAMABAAAAAEAAAD4AAAAAGmix5IAAAAJcEhZcwAAFiUAABYlAUlSJPAAAEAASURBVHgB7L33kl1Hsq9X7b2DJQi6IWfmzHH3hkKK+6yK0Gso9LeeQe7MmTlDCxAe7b3T92VW7bXaAAQaIAk29+rey5Q3+avMynIj/+f/+r+d/l//+/9Rnv7972V4DUtgWAK/lRI4zYTyqG/xPOXu98rH98uX/+N/lPH97a1ysLtd9ne2fys5G6ZzWALDEogSSGj3AS66/W6YHj8+OChHhwfl+OhwWGjDEhiWwG+qBCrAK8LrI3j48eFh4Hr0N5WfYWKHJTAsgbcqgSHA36q4ho6HJfDbKoEhwH9b9TVM7bAE3qoEhgB/q+IaOh6WwG+rBIYA/23V1zC1wxJ4qxIYAvytimvoeFgCv60SGAL8t1Vfw9QOS+CtSmAI8LcqrqHjYQn8tkpgCPDfVn0NUzssgbcqgSHA36q4ho6HJfDbKoHx31ZyP6zUjoyMvFWCTk/bZMK38jZ0PCyBK5fAkINfueiGHocl8OGXwBDgH34dDVM4LIErl8AQ4FcuuqHHYQl8+CUwBPiHX0fDFA5L4MolMAT4lYtu6HFYAh9+CQwB/uHX0TCFwxK4cgkMAX7loht6HJbAh18CQ4B/+HU0TOGwBK5cAkOAX7noPgyPTp0ZTp/5MOriQ0zFcCbbh1grgzS9Cro5g65tkducj5RXzaxr4TT79mzmLYSfer7KfQvvp/wP7X/pEhgC/Jcq8R42+nDoGZ9LSd+m/66zFoLmaXdazV4H8nTZd2E4/bD77y0O4/PSrm8fhr3befc9q/raXLwulIu+hibvUgJDgL9L6b2CUptxI2ifTkMffDOHPcxa3NUip6rDl+uc9ZjqPoJHvluYhjKYAh+GjY9rPpYhnraYqi8+fTs9PeFur2wUtxr63a4WL01FjaA9Mz3aN/eG30tHTV2XxhZmPs1t+jhr/ir3Z10Nv96lBIYAf4fSk0Al3J+6OnCn6+YncNw+DAkwa5bh5l1r35ppe9PhCTb+dS46P7rrrs7NwG0GGk5GBmGkYYaSackw+v5rnm14ernPdHSufUtYp9nw/uuUwBDgVyj3ACb+ggn6bGEkPtpXGTDS6mC0ckY5or+TGlAAIdxw8zkwr0FVY7+0Ojk5qX6BeABNb4Z3EvxZTh7BhWkCtUtawjmAHvFgU8MfcGzjiajz3sJq6Q+rcNO5yrdmkz7a1/D565XAEODvUPYStaTcnq8LSjeNy8U7Hn22e7xWE9uBgEh7hqXADNN0Gj7z23uK3PndRPx0njHrSdtBOnhpvjNkvvjXPnoFeqjpiVdvtYEamOM4wxu4GL58YCUwBPhVKiSRET4DEIMwmoWmEH8+EjF8H8f3wLCMjCaiBH7r30Z/FeP+c4Cz8DpSxvAnCOHjxgLu6FMbYYgUGZZxa5aYzDi9G09+RQzFJPgWV1g0W020zG+/WsPRGqow83buqqGFaXvvQjHFw+uXKoEhwN+hpCVUCbgRbBJzfjUzbZtJezaiD2D1A6ioHJibthZQPBsURwCmQNaBZvy1QDHrQ9jYT8Kd/L866sUzMIuodN0CMmy+op/R8iCvj8DqXTdZBvnW3fuhNNP02b6Gz1+iBIYAf4dSHhAxlNvIPp6CbxBu9zZwH3aa+8M0/s/aJnqzv3wKyNJluml9+IpwlOLY4qaFEE9uYlO/9s29RoPTpytd55s2LR5TZExe7ek7Lg0rzKpbv2goIozauvje/+kzrwzrbOPR7IbPn7MEhgB/h9IN4sZ/g0LCqH2152URnLVr4TQRW+AKBu/xDOcJnbyf9R9Ap1FJyFY7wTyKsm10tIwq0gNC3kLiPj48YoSs6uCNqyaghZqf1bAlP7h+L02R7+Yjgd2cZhrbVz51qXnn46z98OvnKYEhwK9Qro30RyR6LwyyN+xHI+GOXwWDwzhtOvvOOwG0QA1B0MVfcsuTU8euE76GZY9b5x2gMy7NWuiguoxOTpVxfhNT02VsbDz8nBwcljgT/mC/nBwfD8R5LfVrGBE+L4bvtzYZg7nUYY2FRkSb9JV33Xf++KiX5nYVfLYGpdkNnz9fCQwBfsWyTUJOUBhE8rYWWAVA+xw8GzD0zRVAwSwIH1iAXl3IWwWDcDom5JMIHT+4dyrLOK8xpaW2HOkr03KK2QnAG5+aKrPLK2V++Qa/lTIB0E+OjsrOxmZZffq4HKytlYO93XIMyNW0qUtLYNq/N3w5PhfhaZehZxraV2Ibsze4IgjctecbeBk6eQ8lMAT4FQqxAQoM+F+JtuPY54NsDE/iFsSKzV6ngktL/g1HgHmdwOIQogPcx7g/wjwUZbgd1/kY7kChIA8/EQSNAn5sDE7Gx8rE4kK58dmn5e5nn5e7n35aJmdmy97Obnn26HHZHxstm0fHZf8Ibn50UEYT4wRJmDQOo/bbCWec97GWeBNGPN6Ca2Ne+bmZwnVa66Rp23XtJce2dAacO8LBIrPbHuF2eHu/JTAE+BXLU9qs9Cnpngnl7FdahVl46nwmj0yYRPMAUAqi9MTERJmZmSnTi4tlbHqmnI6Ol6PjEzjuXjna3eW3XU729xCxD8sIyI/48XtKn3tCf3Dtm59+Uj75yz+Xe3/4Q7l172PMAfjuXpm6ebOcTk6WqZXlsvbsadnb3iSMY4BM1LJuJ9HQRz9GlD/ePygnB/zg/Ke4McNq1c1BvNd8x3evBPr5b++1WUiP1e15f70ghq/vqQSGAL9KQVaqHUnZNZXYhJOc6myAjcCDmJuD6i+bCPgwlorVitcTAHr+1s1y55NPy2d//nNZuXunjNGH3gdw6y9elqcPHpYH//h7WXvyuBwBztPjoxClRwH3KO7mb98tn/zTX/j9U7n/l38qy3fvlvHp6TI6PlFmScz8nTvlNmFvvXxZtl48L/ubG+WU/jiyegD8cH+/bCK+rz9/WVYfPy2bqy/L7uYmgK+z5EJysEmhYTk9zufZLEd+Wr61au/55F45/nlvw+/3XwJDgF+xTBv3ac8WTCPm9t3Z51vcwxFvPOW/JxL8xHhw6/k7t8u9P35ZPv3zn8qX//LP5QYAHYPjHgLwjdX1snj3dhmZxO3kRFl/+LDsbawlyAH37M1b5fbnX5TP/+3fy/0//aks3LlVRpAIVl+uIgEclykaj5mZuXIHkf3uJ5+U3Y31crAFeHeQCA4PAOxpOdjfLdtr6/TTn5XZubny7OFkeY75Nm6jS0GKZfSiWFE+85v3zGHL+dlnukiwN3eatfezrodf76sEhgB/h5JsxNk4eSPi82SrUBt/eEjmDTBwHP1lwH3UODfc+qM//7H86X/5n8v9f/oj4L5TpgGZ49hjiOKTN1fK5MpimZibKbMLc+VrxOkX9KMPdnfK+Nw8Yvnn5f4//0v57N//vSzRUGzDeZ988135+j/+Wna3tssSyrZ7NABf/fu/lZVbtxDbp8shffWDzfVySBjHiPzjRzNl7sZSWSSuxeXFMkNcB3D1fboEhyjlTui7dxxYLk5GakH4GJQJ7115dIVsOQyvX64EhgB/h7KWgCVXn5cRcwadZO/d4ScvMZHabnTV9Len6DfP30Ys/+KLcg/Oe+9PfyzL9+6VY1jl+vZW2affPYZibm5hEc34Urn35Zf0jQ/L5hP60HDgA8T0ApefXblRlu5+VJY+ukvDMF9ePH9Rnj1+Ur79z7+XDbj4TUCtKP8JcYzifmx6qowhOcCaTVyhk4+ojpLNMXL63dNzs3B9xXuG2GiE8urllIyEqH4JaJur9rSk/Ou+u8agBjx8/AwlMAT4VQoVWm+EGk9uPu1i5yXZe53lVwFsTFWr2ec+AVyTCwuI3fSLP/+03Ecs//iPX8E9b8BNT8qTB4/K6rNnZYs+8eTEZPkIsXoZEM8A3lv375e7n39eNtfXytrWOlIAsSG2K7o7wUWRfIeGYYMGYA3xen11NRqVm4jfcuRT1fI0IDY0/uTKatGPAPbe9nbZpHF4/vgxjcSzsosIr7ktU8LUAiCPFeCRU8Px5ZKrbz4ookvcDY3efwkMAX6FMpVg/Z0n1mbeJ+gWfDPzKcCLQ1mI3/aT7335B4D9JX3vr8rN+x+Xufn5ssF49bMHP5YH33yDQu1pmaH/XA4ZJhsZL3OfLpWFGzdDgbaAQm70wXQ5GUMaIMwRnwTvUNz41GSZJqwlGgzBu7C4XGbm58oobo4ODxHLD0OLvo2y7WBrA6lgrxwgMWyrZKMP/uLho/Li0ROkhO3g6IrjETa5jyasZapXEJcYmdvh9SuVwBDgb1HwjXibl8E34PHq0XlzMnjqVo4nuBGImWE2UeZvrDBG/Un5wz//GaUYYvnH98rc0hLYnyiHjFmvPnpaHv3jO4D2Yyi85ucWyzLAvv0JEjni8wxDXTPLyzEEdiz44NwhBvM+SfjLt2+Xzwh3Ak69t7ldZucXYshsjuG3fYbcVp8+LS+fICU8elh211YT4FtbaNhX0bCvlk007TvrG4B+u4zEmH0w+kGezHDL86AssNWs/915GL790iUwBPgVSvwy4m2E3p6dm/aGTaV8gT4Kh52iD7wA2G4wNu1vjv715Oxs7KQklx1hQorXMX3i4xCp6R/TH1YMd3759MI8Y+ULgH0+ROgJ+9VOosG9/hdpAMbG6bvPTpejvf0yiaZ9Zna+jNM1UOx/jHTw+Juvy/OHPwTAT9GkO86+i/SwD9eWcx8zhDZCeCNtM4lAdeapZmeAck1b/iPh9XaZWd9++P7zlcAQ4O9StrXTLQM/S8QpynZBN9FWwPIutwU0zhIb8ymA4oc5gY1MjTNZBW776cdla2erFAA5A/DvfPEZyre7AJrJLydH8QyQA3QXkDg5xkkyLiSxRzw7P4uibLosLi3EZJXg7ocnaMOPyvqTJ+XBX/9afviP/yhrj38EzOtwaeQLJrScoik/JbwTNPRybvPW8qio7/rzkxEmxOCcLNS8Zx4zz1karUz6k2NambRmr30Pnz9PCQwB/o7l2oi4H4xmlxOwpgKBJ5rvw52dsoPSy/6uw2FOHZ1S5AaYIucmY95u6zSH2dTUTPkIgC/cWEa+B2AH9MfpYy+srJSPmJJ6cnhclpEClAqOCVtFGs5CkZYbSzD1lVlpO2sb5eWPT8uDv/29PPrbf5bn335TdlZfAPqdaHgEsFNU9SrXjoy0DPFM9aG2F69+WbR3GxXf2y9LIL8vL6OL4Q5Nrl4CQ4C/RdlJpBJlboLQ84hhmAdVJ9nG6xknVesMYOWGJyi5tl68KE8RuSdQjjl7bJo++RxKs0XGsGcYg14B2GrNv/jjnxC1J4p954npSRRkBwB4r4zC2W8wM+2f/9t/h+uewKmXyzScXm6+Td+5bI+UQ9w6E+1gc6scIXKvojT74T//qzz57ruy9ujHso8WfuRwr0ySAxseh/Kc6h6wlFOT3twFhgaCrDmO77i/ucRqcJnffp7zvd7l+gOXw5dfsgSGAH/L0pZQe3R9xrfmHSl3rtKPoEhg6Mn53fsMP20wDCaoNhjGGoeLz8Khlxg2W0Hhdvv+J2UODj07MRVTTUFrOYDLHzFufcy7Dc0cirPpiWne4ego51wmKqfeI+wduPLW+npZQ5m2Q/hHKNA2njwrj77+NuI9wp7Wgq6CIr3Azdnx0YXAwNTaGEVOuHXpz5zqKZaWmiEuwzh/NbNWGuef590Pv99vCQwBfoXylOjzamO/HXA7m+bCZyVr/Pkm54t1XzHmvMVstKOyynjzKYqxMWaXTTOh5cZHH5VPvvoSTfidMskQmXPUx7HzpyJujL624vTYyASiOmPfhOv3MWG5KGVzjXnraN8f//A9irRvY975CebHzEY7oGtwggjvIpMQw/Frw9QmszhzLrhzzWjw9pDKjYW8YpncPqfutFLAsncNCimHBbFp4O45itfO5Xmb4fe7lsAQ4O9agvjvE67vCYPLOJogStfRJAAkua0rt2L4DOCcMnd8dOpF9M2PGSpbu/E4wC3AJ2aZS47WPLg649sBfIHO8Fg0GSjEDhHdd1mE8hKuLbAff/ttefr992WbRSPFpaHE6aqxXGqaaQypg0S3dLvstOVD09QlnoMhDsR/KAUjS5mvDCXdapJNAS/xns92byHqrr03u1c9WyzN/k39Nfe/t+cQ4O9U4+fJrR9YR+R9U0k5gBGG+OcfvIWoKweOPi/i9x7Ktycn9JNZ0eVKMBecTDBtdHZpsSzZT3czh0WG1ZxKqlgOuA8Y0tpnKekuovj68+csFHlYtlgSylS0MgWwjVgNuPE1YPSfwjpzFJAnhdU2kilU/eaXjgb22gzc8pZX9dt3Xxu35r/N/DNcg7xcEmjhGW1LX2fWf2sx9s3y/dU2F91eL5MhwN+xPhvpDGj+0vB01VwIMr5DBsaY1wb4NpzkVkqK0tuI27uI7cxgiXFtQa62fRvl3CYTYgS4c8UN4AjN+b7id/1tb2yUDZaX7qFgQyPHRhHEb1wRZb4oaseF/3hrSUzDcJkOGrjzK4BOEAlszc54JA5j8cqnd120pzZve+k/YzkbVwv31eG1tLzaxXW2GQL8PdXuWTI6+9WRdyX5oFHc5H8HFDicPu3uxj7pKMBc7+3lzi7HLOU8Qnm2h+Z7g+GwaTZxGEcL7xwYh8YOEcEdu3aeuUo4++Jq6zEk3ATGAHx8+h6m3JptRBbJj1v97N47++onPJ6zD0e9W81Xzf3gMXCRkWOe4bS0NuOBu3MvF2JtBj/l8Vw41/lzCPBfsXYHYOulodFowMdJJz07X+HTsbRzf2u07IaiDfEcTuxxRi731J/bI4dHV4kFlz4fytlAX2971u35L/22NF8M57xJ3/X5kF7//eo4LvfXYm7+Lnd1/U2HAH8PdfzTRJQuftpdJmbgzj5rpVQbgxDt4XJtbNpNGuTsMcddkNPPDi9yTAPpgbtBqxF+xvT6Pu1PFk0N7GyYRDvIwPkQmsxwWdPWue1E/84sCoKAI+he+L3XzG71cj5NGvfd9kO+zu9DgH+gtTsgRl8qteYwluQPMAPQaZWA4B6A1v1l5N1l9PW2zZ2uWirO+zhvfv67hXGZeQfy5urNnobVpamJ8Zf57ae283GZy+tvNgT4B13HFSDxSM4teHMYq5IxrFqtuIo47UJxVp/ZIHQw7bLah0BnmgDyu8bbWpa+k3hvcTeLnwrvvLvKicObcVVJgu+BUfPSe7b8aNRS6Hs/9v67dl6a9d2H4e/kNgT4b6CikzgFb4NC49kSbiPfNBMEFS6Rs0bY7fm+snsZkN4ubNN7lg+/aZiZF++dD9+6r4spaXbvuxwuxvRhmQwB/mHVx5nUyI2D1zWq5OmrE0oDxIF431SmaZmc0fH089Suv3b13zVrxJ+hN1c/z9O4W/zZV+83R/20dPE3932TbMYu2nRufOtydtb89/M1BPgHXtdJ/ud5nSCBuFGmBQl3N3JzkeibSXu+a5aN7n2GZXoMM7LhxxtdpqDz0dKTJmftDE6T5sbv38s1BPhvoqYrIdu3Nr1qyf0Ljk3f3ImuWsjRefHe+qtvQtR9OET4+M/rTXw3t2/67IvlGVsIInr/yeiag1oOl0QZeYly6CwVaH6v1xDgH3jNS5tJn4ChR6iSeHBx7YOCMcGJv5DQeWkgb1kUTi0I389fmnXmzeVZV5ebnnWTX6932cXTj/OycIZm71ICQ4C/S+n9zH47zpNwaJDpwOFb8PKaEkDeHA1MukRq1fy2Z2erXTYbndm5wDqLeLuqbcbTC6wG9Lrw0i5T3aX9rI+BevGs8RuktZeWa/Y6BPhvoEIl6KRZwSw8vJppcvKO6MPyjItm0vyFBHsJCJp9i62Lo4WQjUB4xXG456NJEp0r3zK0s2Ypnnc27a0L4ZJknQ3izFfz3xn2/Wvrd9+sc/n7eBsC/AOu5wDiIH2K3PmRjw4UfTBp15F9kriium9q5Q0z5rlD9q5Ciys8aJF+25LWtDx/N4zwUP0SY/x3MXfWzZ12DWjp3pgiHD5NReQN57pM16ZTX72rWsQ+7hiftzcMS0Vn4TUc+NZC7IX1O3kdAvw3UtGN1iXVy8g1zLhJ0743UT35ffVRHy2EoP9m1iIIaEQIryyZvpf2fsZxeB8EGFbNXWuklDtSWWhqUgqpRpH+DK8XRvUYo4FYho2jCPHirUIbMzPfZIWwzsB+l/chwD/kam+oiDTmR5JyJrrtDZcg1gzC7vkJczyoZQ/yx9L14KcBDMGRAGlefDaFHR4ivAolP7gMpbnJNewBIG7G1ZR6GV7ew9vghlkYG46glndnGnQS2z9pn6gdhKcdH/HI93ztwG0qYo8c2owMWxemqUbo5+/yGgL8WlR7j/jND58yMq8g8UrnCU9NdcDPTSDCRZh0GDoXnD7OXGFfHRF2jYpnjUjHWKeLi+4yrGrOR/gbeK0eW6Dp+JK7DqojHr7ZaDTJ5RIPv0ujIcB/Q9WeRNwluJJ3AKkKuVhC5NVCQDeuqq9m7rvc8nQkt3ryOyGCx4HYy2vDYA1PILY4mw8NBmaDlwgQcwOohn13vYCjH07CMq3ZKERDNPBa42yJb2nKKAb3gTHuOpBHSAM3v8eXIcB/Y7XeMDQg6Eh/EnLaNRu/8l3bsJP4wxTz/B+4MZjmxvd2nQ9NKIY7HQTo2rcutSEOHs1NH2JhVm8B/gp0jTIeXddwMGxmrWUK5+EfDwM/vuCy5i0serfmPMPqWfxOXocA/w1UdHLCRvCXJLhScQIZ19K78MA8rPJ1ADpDCGxGUA0Cuu3eBYRz2psG3m93jvHZruY6+vV8+J1r1Q0pXZqWAC1P7eXYhqO1ByR6uUVVPI3PbxzYxdBv65drE8th9add+Ej39TUe3rq8pZHReaWffP+93IcAv2Y1LcknflQ65RU9bQwb4SfosJPikWcD2OmJ7+oJu+ZeI9/jGd4SKvntO7FyjprDbmMo8QK4RtIg1d4x0m6UnWM9H82TWfTjUUuh8OPp3nKH7DTr6aceoST4TzCLo50IcdRIDacL3dhJmyatidLR2auZ6Or3dA0B/kHXdpLjmxJln4j7BC84XUPeNoAyPLlzbO1kn9up7NH3rjHhoYFGE8OVMyfnTd237DVOQMPBCH35cXZ+nWJr56mpqTIx6UEN9u/xa9zeAL5gnsR+liOM88fWz4BcKSHOJWcPuR32nNva3CjbbBa5w4monk3uAREnbF/FBtEBYzl4u2w7TKvP1qCZ4Ab15u73+hwC/DdW8wLu/NXoPZ5Qukom3yX4IHrMOG802J4cdMJtmNmscRyu6waNB279BLcMX4BRjup1glsRJT5TcQW42eXVU0x9Bqp0w77sU5xcurDAnu2cdOrxSXEIoiHiOU5GJQ3GOc0BieGOAxNnOAK5D/AdtncW4Nscs7TJxpKr7Aq7xvbPq89J4/ZOpiMySfriqSgvuJvUonFYEPNlJWWufl/XEOBXqO9GQue9vpqkXuUjQ0huez60PomeC1kQnnGeBB5gDHMB7QaNuIP4RwCjP0EZHHR2DqBNA0LOOWMX1g22WN7jwITg5KK5icwRLTf/AbEAdZvmWQ5d8DnKpo+GC2uOHV5XOGZpgX3b5zlOyUaAqIPre/yxDYs7wMrhPSl1EvsxGpgAZzQCx2WGtCyzVbR7vMvBnz9+zMksP5QDuLf98lEOWPS009MT8uv+c70ykKt3ZdK36TnitXNz1tyvV/s66/Z8GG/q72wov8zXEOC/TDm/UywdAQHYSl3niewUAEX/FhB5rNEIfVwQxDsHJig2Iwr7FFxxnplHDXPO+D57pq9ybtne7l6ATQREf9gnEbd4FK/HCXcKf3MCnFNWxgUx/WmRPFnPOp/zfDXi0K2eFa0VvxXT7Z97fvkY6XIXWLd1Nn5/xmPY04Q7jxSwcPtWmaXBmOLAxVMkjufzHHHMgYqHHKDoEUyeZX4q2LNVivK1m/FzX5fFoFlXRz93Ct4u/GsJ8FbYl1XGZcVz3l3zf5nbZhZ+mkc8pB/vDYTwZVnY4MJx/1Pz8N8ZtuBEcZhy8xnBYNk01OlVy7BNLi3AAZznlnm8UfwQmWc552xO0dl3wDfjDzfBYdnMbY8zytY5oPAQpdakorvHIBku/zYm9t1Dq823RyTZKMi9Q0FGYxIcXOcVuILXMDAKAHoS6skOBzlwPNMBQD/a52TU3f3oW2/Bpdc21srzly/j5JZ7n35a7n3+WfmYtC7evF3mPrpbFu9/XJY4p+3xt9+VH//xLUcfPyq7uD/E7ylSxwlnmrfNJkOuqWnPPgUZiEK1l+5rfETeLMPuOitD6daruuYtTdp3a2SrcQ27uQqvH8ztWgL85yxdK3lQ0TWiJJ5GForLzYWV3vfx0ylrPg2jnfI5cupwklrxDFlyDDoW1AAqtNJyP4AxzxHEyxw/vHDjRpnj9JNZOKAitcCWs8olFdPH4LzGZf97jsMI7YNPAthxlGOC1ZQHuKFmua2OhYli/jggV4mmuzh7HNdu2Zwab7gqYXnwwiGc1mOUNgCkRxgHuDlvbQ8uvIP55tZGWaWv/Yyjk2dsgFC+3eRk1RDpbUiUFGigphH555ZvkL/leL588KBsPn5S9lafl8PtrTwc4ozIXuuiFmarmYBgj8u3eursyUhcrRYu2jQXlz319XY+Lgvl/ZpdCeBnOdNPJ0iR75e4BoV7vmIHFpmKy1LTzM45DQ/NrLnR0PckEGxV9Ayq9qwrvwbjt7hptu1pWF72lTUL8ThN/MAv/kdUgAE4vsMNUbY+8RhgnVRsRpy9ce9euQnHu/PJJ2Xx1s0yAahDjAaIAlMx+wRgHwLk4wCx8SK+YzdhH5dYNHZcO7NDbEZYAR4de+yO6TuHBh0/7XTSUzip3NrDFI8UvQXxxnp5+eRJeczhhxsct6T58d5+uDkM0Zxjjm0I+M0j4s+Qjil+hrGLUs093yc5vWXhtuelr3Cs8r1y59PPy8O//q08+vvfytN/nJZNpQKOQTb+MdwHbZrmuGrNxSNrKJWFlGOUZToMG91Y3vrj6WUjakG0hqAWioZnruo83OszvJ1x8et9XAngv15y3yzmVsCDen4zb2/kqoWt4374ffMWUFZ231XapKjtewV8gJt3AxGM/IK4+PbpcNYooFLJFX1eQDCGOO1wlCeMTsPpFm7eLLcA903OFRfoc8tLZQTwy2XjOGDAKCGammPCOyHgSDPhjhOe7w2sxmlaIm496FEmzsNBMse85eqC9AAR/5Cf/Wk59hGa8EPA6ZloO2rCAfgTjjDefPkijiyOo5Qc28a/5SCIFf2n+c1PcnQyZ5wf7x2UbQ5f3IbbzyKF3Lj7UZkH4LNw8Jm5xcj72LgjABzrRFu09fwZRyLTN5eLm8jeFfny25d6RZZ4z/zwYl7j4V3bznGCO78T6rWhwNX566zP87a/zveVAP5LceR3LZJWTa3K2/OycJvby+w6swyhuZXjSQACIeiifof7QMnZGP0K7TZg8ykhJecmANyrKBuLCSCOJdMfhtsK7DZ+PIe4PaUCi772uJwbgE/B4aYRbRXHF27eiNNHJ/g+iXFoYlQJZVrob5+l/ZoXHjkmnkAzIx6F5GXDUnsH8ZS0s6+NFACX3adfvfpitbwAxJso6vYRl1WCHW7zA3BHfO8xpi3QjwH+KVpypQGBYpPSwhohHwuz82UJUXxmYopGYp/hMkR5uPMM+ZoA9ON3x8vEzFyZv3WjfFS+ogxs5Bjym54sP46NlHXScMTBi2j0UhKJHFSOHO/cKIeoKrLn08tn5EuzsLROrNUsg3DUew9/1XNzkVJBhpPuP5z7lQD+4ST/8pRY8LUOelVzudurmLawlZ+TZIwQkiDiqPSBg/yOz2onsOWedGLRaqus8kefGNCOwqEnPFTQ8WGeaqKDawO0KYa15iF2x5jH0IiPox335/HBarQF/hT+VH7RKkRjkWkL8iVWU5aJMPpI0zFpRrQ9pM/s2LfAs/976AGGuDZNauTbM44xtp8OxzcsRXmVXPtw7j249uGOovkWp59yqinKswPejxGfT9SSC27OSjOOSFcFWyjuKIMZhu7mAfkMXHyT8HZoGJ7B9cfJ3wgN4vHhUblx/xPyOFeW7tw0i1HmowD9lOltDtkJ8gP8MR0u8kPz1BFC5IjYazFogSzCn29RGllEkbPBa/3KYNKVAbTL3Jy92ncN8azlr/B1rQA+KFxKt71bpv33y8r4TSujuWsA6fgDHLlG4qPFJycIPxhoFmIpnk8VSSHopZu3yuKNm6EQm2Hih31pwTo9hyJMgAswxXKAJNAc5hqDs7ex5zS3oXDmGFUZCctUSrwxbVQgQdVx4iiisSlR0y2lqwwTlDuI04I0zxg/KDu7uyFZCLo5xrUXUdhNLE2UaeJxuE3ObixzNCgHaOwPsJ9R2qAvvf1ytjxmyO1Qrg2wFdtHBbaSBFcDd5QHabDP7FDe1DTaf7oa03Q5dhDR95nF9vS7H8o+/fotpIMtFHF/QsK5/eknAfrFO7eCi0/P0ziQjlmUdN/836Ws0pAcIz3Q8kR5mM5QTopsWK3xqrSMefZ2hfyzLLT2L4ovy1B/XvmVdRnpr6Zp27kI4w/sdq0A/ouVrdTQv6AAsdVI+FRxGLKQYCTg6ENLTPycRSbHnkcpdvvjT8oNhoBWUCLZZw4NN8AWRGOTOZ4thzMMp4Pq3z66PwnRVIRdiOPZgMQsNLhq0jNP+95wPxVg9pcdl1bsV1Q+3j9EhN4q63DcHcTqI9w54WUbbkzAaLUdrrpRDu7tlhs0Bk5HdYaaE8Ll4tNw10X7+rg9Wlku48S1SUN1QFj2wbdRsiEkBIjsZpCYWmoVMthFHghLDjyOqK7UEuHZWDB8t7aKBp5wPEZZDfv8EiMFlM/k7DQNw01+lqmNYInJMYco8baeOvZ+SLkTNwWRsE4AR4QZa6SrA2zUFo4S5AnnVsmZbtNaU5zBNGuemaN8tvee9a/2eq0BnhXyvstWbm3IEILPAJ+AS1I5hbuliFy5BcSriCuXnUQUnXa4Cm6zdOdOuf3ZpwHwBYa2ZmL2F8SteB1NRTYOhho7t4DolBIkHxqLFh9pOD6IOWuZUYAroBVTHfo6cdwZwO4COoemDuCqpt0FHEeAYWeDsejnL8JOgGu/B9eVwO3fq7zbfPaCYS6Go/RJfM5CU9HmNNPxyRtl/uYKFmixiXt9ZZFGYrfsIpqvb65HgzFCo+KPBBlAxG9ggtJ8CB9lixMQeUK4p/SpRcwInP9gZ4uhtjV0EmPl+Zd/KMtMgJmAY4/SANrQOTR4k3K0a+GMPBuxA/r7B0ghJyrhuIyDWsn0+yRu8zHY6SYis1x7F9JXeKhGptrLpy5tDtLM+qm2ZugDu641wH+esq7VW+vUh2AQmPaJHbYaBxj2kxWlFbOdf50/FGKIvYqi83DG5Xt3yxzgnmbmln3pGJsGKHLbI8GpSC2qFS1hhZoZ3wgcOyaUVM4Voj8AknvLwRxzPtjaQVm1iwi+mwAH3AFwABCkDdiOAf8+Y+BbcMp93BmfnO8A7mmezM8uoNmncRA4gmKH2WSmVV3BOAqu6XnEY6UPvl3ppYSwcv9egG0TJVu4I64TgaeUYFeAOIzL8Fr52UCGbgKAqzibnmHYTGkGZO7RCK0/eVwe/eMfMa4/ShnrfhK9hGmcWJ4kzsPy8dqfSCvz2cnPSYjqNEr2/y3HAKHNpQWYny1+xXUNG2QjTd4GV63z+q1VhBPf3VdnNvD4q79cCeC2iG9zWZC/5PXzxZYVHfzAFp5PgSBhjqP9nWZSxiIcb+XuXYZ10P5CgE69dGqn4uzkePap7S+PIo6OwYlGRhkWQhu9B3idm63SyyGnNvwUi0CYe32sOe7sF46iaVcimANcclNF0WO0xwf0fRW3H//wgOGpp2VX4AIqwRVDWYjfx4AtCJk6cQlmED9zvNu0T+tqlJ/5Euzb/PZcBLKVIrcTaOxiTKGpn1leZEjubrn/1R/KOA2WowCj6AhstG5//mlB/R1pGCVte2sbzEL7sWwyHh6TXtB4H8vVpQ3pyW4HRGLZzBD24grDYzeWUdgtlKMtODN5+f4//kp7p1umulIey/c+ilEDy2OGsr/7hy/KkWPopNUgN2kUdhHxD0ODf4Tm3irDIu4AuhKKQVqT8dcMrV+usKpvmrTv6jVsYOEDm2afFr/+/UoA//WT/WumwCrMChUEEvWpnFql2Z279Ks/LrcZj16gTyonktvNwsGjnwg3Pj5KoB4BOid5QOIhXhqikmkA1SEiOOsuvyPFbzk49uA8lG2TKpUAwZjKK7kY8Stub6+uxVTOx19/U54/YkonoEjiBsCA7OgYzmw/mHDMhWKraqZx0OB7uwYNOMTu+uyDAxoGfg5DvaSxGoVrRhoAoNruafJpY6EC8IhGSL2B3Q61+o57jwLGLYbTJiijEYfBTh5m3oOzUpqikZ9AG6EQFP1n6GPP0jjO2N+mjPeQRtZ+fBiSi10HcxDdIuxm6ZePo5xbus0sOOLbx62z9Z59s1BePvihrD99jNJuC+nCxivzbAEEliuQjbt1vXjtYdav7orGsX6etencfEhvVwZ4FXZ+Mi/9AvlJxx+4A0GWV/YbJRD73BLtzNIyferPyj1+K/QTHdayXyghHULI0Tfc2gUQTNFE5NwDkPYQgV4QWlMGOYurTeXchhPJtSVkuabTOedpOFbu3i7T9EmP98YJg4WgcD3HnzeePgUEcMmnTONkeugxkgDyfhk1HQBbHMWNl3gNYm9ANy+Zu1ZnNjjy1ZgoQ796+8VTJqC8JAy0+ugTJlGoHdIICUK7Ag7VqQhUWnCuu5KMEoxKxk0BTlcEUads7SJV0LdWQghgEW0rW1Pm9Nc22UfpZJzfCA3UMSL/Og3XdygcLZeYzWfjCgefRps/hURz4/79GIG4yXTdRygvH2D+Dfk/VEqhPE5oYA0z48n8Jpp9N+c22zjgymdUcqYvjcNNOKi3atw3+mDerwzwRgQfTE5qQhqhnE/XT1VC8/em7iQDRfMxwD21uAT3uF1uMYvMKaKOKG8xzCPXOaY/LUgCuJht04fdgLPuIk4fSTvBRiAmng4lnTiBBH97DPXIwQ8hbBsRlUmGMzc/w5JJdziB4A8RveHiTkzZWmVaKMS/yhLLHYaVnGiCOBDgTiVQyBtSbRBu5BPupZ3cO8DPM0BOutK+usXNCdw/Fo7oBkcjANXZYzYCc4BYrbkLXdz0QanF+fCuWlugPGKuPOa7DMlt4m519QXpZvwcoBtDcHYaKfMZ8fPMhkhra4Z0qmNAEtin7F6EKDOOsnI+xv0n6K8rPTjM6Nx7F8NMO7+AoTsvJ83Yxm2ztvyILosjCxFm2PqW330zyyPKoN6187IU80pf7asafnCPKwG8EeWHlptWTa9K16sqw/xk9aXPgYjaAqK20w3ucBhQkQKcrAJRryCa30I0X0YzLjd99MPD8vLps1D2qFRSLx4ishptvnfpEx6isYbmIjzTJbijTwxwQ0EEsNV0K1IyGF6mYDsLAGkBsXd6isknYOD0hP6xk0tQLK09eVaePXxY1p49DeCB/gpeUlsz3sonBX4z19n55ZWNQb4P7vgfI+PiboxAonxsjODUu/T5H/7t7+UFDYvDXAvLSDIf3UPCQII5sI8tWOmb0yBMxiSVO+X+n/8E8G+w+IQJMnYtdvbLGOAEkQDcss7G02kxdmGinEybCaJMXGCywaSWH/76VxLEJCA4txLO0i3WuyM5jTLzbWqBPjyr09xs4gD9hvH/yBz2jeMnrEJjxptlGyFa90o4hk8M+W9McUWc7c0CtC7D0FsYxL37qukMP7/+7UoA//WTfTEFFnUW90U7TZpdV2E9dxjKKKzqzl2rsgR3z3W6QRQdYcx2em6BoS4AzvzvBca2DwDxNiL4c5Y1rgM252UrYo5CaGqOVXIdwtUV3wdx8RKgaxNCbEW01dx4AJPcW245HuIrVrg93Ed5Rfgbz1/CvZ8w3IUIzZixM8eITFod/Lr0G3ZeHdDbW9q1nEcC5fI4l6htbKJdC++Mo6PZV2zeIC4no9i47S4xZEa6JgH4HAo5fY/RR3dBidp+OezHX33JhJX7fB+hENspL1+soaeYQ2cxE9KPEpBMNvQT7Un8jHaTL+IlfztrTJH9gXn0NHZzKOQcipRjj40iMQDmCSbOzK2onHT0ASmIAPe3kZoQ7XdePmMyDFJQ5I0UtvKOlpA4ohh4ZgHwbEK7Fk1wD0cDF2lTvYYrbh/AdW0A/i5lCX+BgKmi+O89o/pq1bXKr08XfYzBsSTYmwDc3zQi4/HJRjQWDkE5pLSvEop+oiudJM7ozwLYYN2DRBuH8eZTuEWs0phEzeXw0z7czjHqGQjWTQn3EfOdA25jskb/e4tx5yO5E/GoCY+kVv+G0WAccWnAZTztbhFkbGGYnAqzCw2f0gZ/MWJPg3WCRHIE6OwTb6kUBEQCya7D6rNnxbnxAtC+uDP0bty9CaedosUYjTxtAvDTQ8BPH91mSWWYfp0k4/eR7yRpjMZNMJ7aXUC833pBPtHUOySphOUsuAkXrNCdcQbg+BQSD42M/syo+o8DFIV2DRweNCz08cRQM27Y/mU/AXOlj1YmrWSywcsS+vDv1wbgXfFfXujaNzcXXGDhZBIrt1ejEEUz04cVmyHoLiZ6IJ47A82ZaEv0NR062kdstS/oYhE11jGmfSwUMgzQ12IJE28NeD7jvSYUeguQRrykJca7ETdjvBoAOXa9vb7JeutVgL6Gxtyx7DoclOgm9Iy5RdYvg2ajCJzm/XuaDcqEcHTf/9a101BVXMEmKa7R2NRBPYJptDF7iRQzCeBmKKclhtJuMrQVC2PQwLvrjA3B/PwSY+SpADsxHBvAmLkHedqP9mf/oOaJkiB85gqwkcQ2UstTFp2oeV9h6q8gdwqvSjfnIdgtcAGPUtM6Q3TbNLibcH+BHhtGqIQ0ZxY2V04q4n1QfmHcuzUqSKMsD5xXFz7be8/Tr/Z6bQDeSvCqhZvVW2uHyo1qjMCowlr5VqZDKWq/p+j7OV6rWO6kFSd7jMOdpvac/bXMj9lpj+eyPwxHjSmkAZGWUpVbmdokmV4DQhz5l27VKKuociKMU1ZP0c4dnyLqs+rqoPbBneDi3HI5d7gnbMPoX13ZdOaC26+MvQ2XVZeEZdpaWpRyojHgCdziZ/j2yzWHtUbajhwWe45CjD72OIq/McppiWmmH3/5hygzx/Rjowo4vti1/3ziWD/c3zHukUPn3ruijgk1/MbGWfZKv7opx+TIMVZPGRyjjd9i1OA5fe9HcOspRXXAPobo7kIVN6YYHWXiDKMPd778InaSWXdsHIlj7zmi+jZpDokngRk5p7z9aqXUnpqFKQa6S3PeFH0+0OvaAfzq5Xy2khIcVmNUOc80aWOvKteWGK668fFHZZFhMTmUAJhg/HYJBdIKiyGePVxiUscGIqxa3BQFMzSB04WcZg3m5iDT4l1uFJNo4Ewz9FPdvVQYOrPNfSBGQo7FpaDhYaPhLxVhLdVdXIberowlv9q7qcy/V/mp5YC35kdml5NjMFTbDdwPdxkaBESnzIRDKxgccwKwuavMMmPkNkJyVuM7ZE78MSI67QkBkXrE6ynGzFcY196mC7KDdOIohNNuHUEYPWXKivEgqjsrzhVk6yj5Hvznf+Ifkmac3kZmgTqw2yTIla5WqKsDGh13mXHs/xni/RbKuljKSvjZF896IFmRwUEe+WxXq6/81kWaNPsP6XmtAH7VYm4cOiqG+kIArHXUQvSZ7yqSnIU2D7e4/cXn5c5XX5Sle3fKNLO69hH7nL22jLi+wxjwUzi7BLrtRBHGYWMNNMG0UAeEUMXBIKagF1zw9FXOPeOccLTCS2x64NATrDyUdZMQstrqKWbI7cPhnN1lZzVINAIbxJBg7JnF6yAhvsCbIh3GPbDAvOcpgkvOpqmdDV22sFrD4HfNEmlC0kChtfO8lKeYO+lFcG2iGByDw6qoDH0GeXGIza6N2zkrxn/61VdlAreuM3cC0A6NhQpEiVagH6NLdHQidmGlnL9Hm7+FRn6XhsD93j79y18YF/8YPcl87CC7sEJ/nPBmkRhWqK+/U5ePaEA30V/sn2zG6IVLU2Ol2aAMMv/ZrBGxceej5rF9VcMP7HGtAP7OZRtUWSs0HkGqA2K1kmPrYWZzuevnrc8+KTc/vV9m4UjjANv9zWwAXM89Sx/QOedOeNmFYFUURTcy4JdxZHoFTMYT36QhZq5BN63hCU16TOhwfThAxm4A4mB7+Y0wyksDXZ8kM6bWbCWJZhrStUSahKppS42Cqle6yff8TnArKUQo/fRkMGmjMi4kCzTfW4jtSDHPSK9Dbi9/fJybRDp5h+m9Lmpp+73ZgKnHUDnp/PWFW7fKFlx3yokyAFvQy3W3GU+XG6twPKCLsrv/HB1ANjt2A8adGozI75ZUznYbowEZu8EqOBoTG1u7N5bjI7o9a2Qk1q/Dycd5D1KoWe6XpNlr5aN1+65OP7jHtQR4pbE3LuwGMMVa/ySRrEaDyNB0cwzBjilmskZ6hT7lzU/Y8ZPnBOPTojeAELUP6UNUcqPcmcV+YIrODnUZfMZQSUduEf24tNQuL9JCnO58uot0sAf3mlREhavrxu2G9zB3lpyiqqbBfQgmGgklEeOKsH22cH02+KZZxKzbCDnNmr/88n4mgJBzmkmXZpzVRsc+uVcQGUq3UzXfTx6VH9BmKwUdUiYLzB347F//NZRkp3RzYimrWm/jQoR3YYl7yy3izim/U4BTgAvuh3//O7MEmfp7ikYcZZ1i+z6c+wk7sKqnm6DvPg7AXQvgTrIq9RxCG3f3GOYtfAm3dlJOjJW7ko6fK+oshRj3D3owKf1S4TuulnOfZ3Jf7T+Mx7UE+NWKNiup41atAgmN16RZZl3FhIqbsczTiS1zKG+ctnmigov+n+Km4HZmlVM3narphv+HjVh6xGCMHelcQijGiz/nipxAZHFuF/3OcXCjVtiZbjvOduPdPr7hRaojK+SEZ5efMBx8h7tw3950W/3HW/9bc91lGOkj76Y/NM/YenX5yZh1FT7tMzPxxZVqB0yrPaa1ceGq3NdNIo9ppJQHbAgtbLdYPoZ727hNMNy1wr5st1zEA1jH6aevOR3XsHT77Fk5GtmJfd1iuS3mjss/+f674jZXN/EnwKeQqlS+ufZ8htmHY5/R1aHe3HZqm/F4Z7wdoA9w1l7OPcgcZb678ov8aBU5i5feW35/KPffPcCtNsHbJ8xmFpVkbVJ9zo92hxT3Fr8Nsd2BA7gRoPuEqd2WnSk+u3zxGAKagDPEtsWscnKGlxz+RC0zkTUCiXj8ijjqQ8N6CSqXhTo7y2WXAt3tlI4Jx/XdnuEVGzVg5tCSXmFKXJmbXlCYZSQX77r3QsI4x6lqstJaF1UEoM3hIvSIQFiaJwzj3++MTUWal2P4OtZNKrI0pbHkjm6cdeToJygXObMrvpyj7jr1VbZG3mZIS13DCjvf3Pvqy1jEYriz6Dn2yPMB71uA9Jg6mKduPK0lkkVdbKAtfwTInaPgZho3cDszxvAZdSnIHUKbp5G++9Ufy9Y2i1nYNWbXaa1MwXUasDnJMvDZpxDT76VtKwe+0nHYfCi33z3Ao07qLYGeVVOrLj4ClABU7mDfcIU+oRpe9+seo59nC3GEEs355fYFJTBBHXt9w0EUAwX/qf3DAGJSQhBiowQjbwTjG9TinzucOBw3w3RMtcH6d0Wae5S5cspxY1GdIZKUmnDJsTNtkXTP5l4T4+muTFWXtrRrLrpnArkBN/1rW31K7UHxpGNgbIr8SF29/eAxGhUblvaTcyKqxESUlyi/dgH6HOXn9lH2090og6qIzSGWXjwvS3DqRZRvDlPepk5sgK0vp8CuM9HIpakPv/4mJKE9QLsC2D0Uwgk3dhNmaaRvoSzdZQKR6+IdMtt8/KgcuIsMDY2z7WymTLWXpdr/au9deYWzgfv8+vXu1xLgXWF3bxZxq6T+m+bOsNIlpEUN8lYd+rBCHfsOkMMBFMfn0cYuyL0R173UkO8idr5gDbYzpOaZpSWHaLu3+NTtgfPM4VbJ1/AIAIxXUTquGndGDxTgNPbhFyDIeX5Oy5R76WuczvwUcUzRr9zDnWnPRsF8mF4NkhwzcD7bS4svGpE0zJRokX7CbXUXQ27YtHS3cIg2TMWx8VlGkY5IoSN3rduAA/91H1FkPJY7+sf4CfDg7vhBLR7LXzfZOtnNG8ZpJGNePl0dZ63ZwY7xbRs/9CF3OQ3FdfGffflVWWJ0Q6Wkk38e/u2/ok5++Md/lWdMuHmGKH//qy/L/T9+yTDmHRbH0Ken8bz58X0Slplw3f53JHSVRuZoZyNm5Zns9uM1suCzXa3ZMv9x6dirfQ4quBpX8yyQNPPevA08VqvmvHOZb5378zbd97UEeJe9s2+toM4UTHykyZlxUL1SMYq8QbZw7zFafZdIOuYtFxicvwUndcGHRHWI0mtqjE0REK3dAdV9zdzFxR1UDxkuo7MY9Z6crPHO9kyeG4AK8GHOM8aMIdpQoOE7Js0IBLkdRGXqdRf+GpFh1vJrVvpXP//9d910Ken76IjvvPt0ZdzZqGhfJfkAfHuPtBl+uMs0NzvDaOFGHYSUQv+a+QMOjY1TvnOUu+Ph6jRUPDoNOIbNkGAEtTMJ7//Tn0KyUgeyzmIfpwvv0ZV5yhj5i+fPYmWefh3ZUMJaooEQ5LNLwoDSskz57bFMVxF98wnz/WmU1dxHA99L5/myxWeWXcsI34YZn9VxlE2Y/3K3aw3wLFfuUFKrEHAQBW/Jxyv34DPVjWbySN1ZqdEq83TOcxyjA/eeZIw2dmOBo7joI3YPpd/mhAs3cjgB/KNwFMd1ZxjamZ5hHBaAj267flugmgYjiJeajuSQmggySSOeiOP7DOfs0TecEeTE6ZjwIcRrd8D9yQV8+ss8+Z5BJzc2Nq8Wts+4WmMwMBi8hNuavOaaMFspVu/NZhDOufiysCOsrID0L9h903WUcbRV5paSV/72IkzF9QMkoqdMMT1BkbjErEHnvR+TzJcA9tE/vom5By7TXUZ899imOafAMuzl9NkVNrT0ZJWxr//BMlP2nkMx56617hQ7oUYe7u0zDl5AyrrJRBiBvcsOMm15rHPsY/UZswej3s4UQdZT5oW2gXxllqPm5A+ZD3KmebquElZ8RU556654r3FcKO/qsOlCOl+vfrvGAG/FLiHl1Z5+WVb5LZl1X9r41SmDggxT8wqwXSE1DQcfd9iFPrF9YddvK0pusN7YfvESSyanAKKbHkwzSUVO7gkkDm81TjZIVMbGndTUCjR9cWHknO7Ywon+fRx4gEih1jw2kADcsVKqAiwaoy7gFsqlz35U/XLpO25u2lO7i24vmuiu76d9nzcz2a37kw1p4GHQqFoHx8w823xJubKJ4xyzBNcYZvPYpQ0UYo+//TbGzhdpUE8YJnP3GOtDZKkTcQIM6A0diF2cJcAfXR0a62iYwz1z0fmObZ8A/g32k9v3KCQ4t2v5XUWwTcNwCFcfALSWt4h31MTdZh1+c7uqplh0F1gliFPicAoxFXmhTCyXn/u6VgBPAr9YZLaeVVjiWQmyVRLOE+I4yuY3OHoArrrWh/uSz7NryyILGty9RQ2sEzNCjESR40H1Tx48ZOiXTQdRwrndkBMs1IC7dZFPp2amhihF6wEMIt5s9U2NYmRwNriZEzYOIV659cQU492MkeXOp3BvCRTCCbemNfLkM/PUKMr098Hlu79aErydvfpuz9q83Vc/nP678fpTchLg3a/mOzIAxzQ6ytPNK56jTNvbZlMJ+shKFu7o4iQXJaRZynaORnSBvrqr0qit2Cn20fds10RD4IKgW5/eL1/85S+xr/osDbBHItnvd9HJ6AnApG48KWWWpaf3//zH2PBxmkZ6Fq381wxhgtISAABAAElEQVSdKUVZt67Zj5EK6kydv3PlXVE4HT+6bTTqivl21XbpRrhhpJN1XDvf6kfa8s//uFW6azViWYW91v0r3PcNfvr9WgE8RL8g8nMZp2CyDBuZnS++/E7enX4tS02dNeYqKU8gcWGJ+4R7uoZKNMOUY6hgs/+99ux5VKJDV4rRzhuXID3ZM04koZUfcPCIxliyOuMZiSTWVpFY2e/2TG2fzj8/YQJ69MH1qTm6gdYwRS6q5xaq0fj+a13n425Z8xnAtoxJs8mOhqo2bvpzyGyUbznzHkth97dZihtllLmJxSdwydUHD5CYGJpkuu7mM7aUEuA0CD9+/Q0jG9uxAeZHKOI+/8ufOZzxXixdPUWMt/HcYxrs6T7bPqFfmWG3HKcaT7pQhQSMULceo/ScWXdbANW1/SenjJFjZ1dpjPH5WSQ617arnZ+/7TJYGiAagr2NrbLGMN8aXYS1x0/5dp3+QTRYmXrrpZVG1lFXVp15c9s9O1ed2avfrhXAzeaAACSaM/kWvtaaBSRBaSvHyMINp70+praO3soPPInEzQiWAfcyIHdpYhQzjgSyihy3YtpC62v8cnXNx+bot1Phbi3ktNXc1B++5CqRQby8GBkBppRhyPz4H4UIHdedRcyfZQMDNccYxhTPUzj3EWlygojLRE1rDQa/2VT1CQjrwXW+bz2w+JlfTJ+XHFDu7XeYWSf8WxetPviMeeMOpUmk41q4wEYLLh+RSzjlOuvhBaLccoY5+7L4bcrk6QuXqs6Xj9jh9fYnzjq8HXu4u5jFBS5bqwyjodvYB5CTcyjeJm7zI0ZU+1P4u8lUZOv1B/r6ay85hOEIRd3JbsxNGKfvPo0UcJOG48v//m/l3h/Zs50dZj2VRpF866VdCM40/69/0CgzVRmuvo/C0G6DDVfNxuBpnvKiXJplM6rPVqudcZRe93nJ27UD+CCPFFKH10bqGA7KxJcsMv3oIss13QpsNx04BVQxaQWxbpkZUYuI3w55OR4d/WMISSLwNEyPzHUDQLdBDsUX1Bgz2hDRnZ+u+KZYLziR9YghFUpB2IOEJeGbskr3A2WNop9j8aFVJxynddqgmJOWLXNhvs8raHDyQVxZyiQQoo98RP8V3QTSiBUQubfuojLStaU0WLNNYWkVkg1v9nH3DzlBBe7o0cTWlQjZh/tu0JdePL0TEoBlor/wSxhH6DTksFtw2hNE87nj5XLMMt+Il5sc3e2fb8Cd7/35zzHHfWaF3VndoYcGwqHPefr0HzGG/sm//ku59+UXTKeFg6MnkINvs0feGI27ylZTbxfvGcco77ykaWN8/e375C31BPcW17UAeCPus/l2ZpYmcQsriUcwBRyoxLTGoFZ+oiQBJoeRK1ox9tkEtyuTFtlM0PXLcY4X3GObVnmDQ/K26eu5i+nkKMo3gWiwRKAiLsQ+++QQjVzchsF0qDXmQTxKEpE6E8elZ/4xc475Ln1QRUKmZQRXk8No54yvQ5dMOkMuQjJHiLzhmbfMYIR42c24f9kr09fAPQLxO7pgg+mOL7EFNfUS03NxmqJ7yFA1mbxbcJScIQnGNqX0hCHInfWXZWSLkQ2c5Y4wlBFcfePh47LKTLgbaNo9ntjjl7YYRnvw//2VTSC3qNs7rNijYaBeMlzCtwFFUptnM48v/6f/VhZx4wo41+A7c1Egz9DvXkIsv43Y7+ku40xGGlECQPSfWjqlceAcNbt2uPPIJTfQjHUD6A7axhxmwjjb1b76ddO3b+7e9HktAN4ym2I3X7XQgpv5mdUWb7rNwmtFiG0Qit6yKF1UknBzu2LXd99ig3/XfUMIKmfg0hJfrmJSg46oB9Bdr8yMi2jBndBiDIrVcm9FdA+z96C9U4e2EOOcyFITE/FlOolZj7QQ9jGNY4d+ool0quok5koCummc3OmsJ/bFQ+FmDtv1LqTRwng/T7OUPyUOaoY0C25nqM1SNo5vhxLSMuFn42QtRGOF36iaKBf5YXLxLKhMnzuuHu3rGr+2A9Y5ng5VgKL8fEQj4t70W0+f85woqyhFv/9//l9Ad0zffZTx8xtO8Afk2YhEHRCGRzPf/uKzWPFmv1qdi6MhbirhGHqsHESctxFXGx80NHrCFNyRMmfXjvF2F7sooajwc0h1nfTsA/ZMqKVR85dZea/3awXwAEEUj0XWv4SOxJ6VbvVLOlQlJuk2RD7ERu1CS6oPKl5R7KYLHe59jDaWA/YQASVOh0HCLRVlH9jx2tiqiG+JwMUn2o8zdOLJoWpt3cRATnW47SoxSDCpKNJg6toV7yTLNIamHCK1D+c46yzmwDuy4ub+rhU/smEhvmMIXKKRyAIQ5perRhN+WhyZ6/b1Sz4tX8oFgnfW2DzcbZlZgYs8Q7fRRHWSbg1ZBjZ2kZ+U4gF4zuazGxRc3jyS15i/wD3owEaaPrvDWy8e/MDklS02pnwcdWHD6ryCVbi404lv3GKH19B0O6xFWdZyM2oVnC5YkQ6OUajJRJSmHB6z8Y693/huq+AscdMygpbOde/RkJHPOzS+f0QSE3Bf05V4ibSnZv2EXWlM9+XXq8wvd32Z6fUC+CCHWcziICqLT19D9PNJgapFzbaTLyqtORUM+Z6VI9ddRkxz5dg0LbF9altjt00SxB6Vo1LNPp3bHfuLfc2pQMX4WDKKaO4EC1eX2UfcU8T2j8gSiKYyK9O0ZQp5cOU+bIdlzD4mHEblndxqlH6jouYxIJ+ESxxPQCwQJ9J6DSlDjLxkUHFv3xlbz+Jnfm3xWb62OH47fuwWS3GsE/nIMWQcNMc6reXUyiSslG4II4KqbvSU5ZlhYwxwcEOZ7G0wtEj9uBeb49UC3LrxNJhjFKcb9MXXH90uGx/dzm5dTaMNROzQCrjtk08uMHoiuPmRWKK0jDOxcdefF+kzIOs2zlKH2y8e3yn3/vQVirbN8vTrb+KQijgDzjY5fUVI7b0avfPj2gE8CcAyVgFlteclOURrj2H09awAK0kioLIVqQ/hCBIf96hAW2m15+4E4k9wxrAUfiUmwX0I4fjzXSWYQzpxjhec4wAzFzU4zBarlwC5i1UkGsnQNBFMV8OYZfqzmn1XsnAZ6oRpQXKQ82muSwGhwkcpwb79ESLhsRp6XRhEBNZ78vpBXaRRLNjAupOKDZdX7Kri0wrkcl6ADR3FHtmKYUL9mEENa0aj5sx3KB9yeLGV88kRB0psU0fURUg4uDMcZx8+/+F76gURnn71DspSIqQBzwU91vkC/e85+u8zjJFPzCKG2wfI2CM9o8RntBmvLzWduFHZaXzjhL3ETLmlx/dyqSp7zhWWuFr/JtdcRBj1niYRVO+mK690me+vv187gJvdIBrKwoL3UtCzSDy323O13KBB4MbWvZTwkWuqmQKpmG2fV6IIQhA8VPAUYpwngMYwVzQKhEmj4K6mHqu7Sx9ZLi73VvHlUk7N5LheinISikcE2xffgGvJAYLjBKGGs97NdHeVKPmElGEDQtfAn/aN8MMpRGSD5VRPc2sZfEjXheRQNwlu66u+CywNdVzLJUAcn9rll+UWV/32PUy6WwCmNRCBIsouGnLc2GhGSBTzIZp2969XGaqO4znDoA5wqCNxx1f33vOQwxWG2VSauZOPnDw2dKTBDWmO+AfpzITF3fRq4yXnt3FXinNJsaMpVFbUlfZBc77UK321r6s/rxfAexWfNV4LhkqVa8uRFbPViKv9XGQYxD7rBudju6+4p3Mc0N8N4OHepaBj7uqJMsjhDoeosuDRbsupaf0V+xwiE9Du1Dl2OMGRRey7DeAdDrMPhywd65Hn6YfPstGAijsCR6GTQDWt/Qpt2bDaDUOefMgcafd8G0E0j4YKglTqcJtmp662o4WDo0mgBNiFGZR/dSp5R58NkJmKs2kJcJPS9hc70VAAMYmFp3lAn022KEfN+c756vgIAFmFNuGa6xrQ1CiqLBbfNnsBRu2aA16tx631NXbLYVtl6lKNfgCcMJ0GLCOYR8mqou0LhsM+YiWaQ2cOobnbTMQpUCMBBMiVqfFNCZHLUQ7Cc+pqKGJ5j5RmcjPtOgvHP33T25te1wvgkeuumCQaCz7KHqDZ6np4310mMNyhNV5i101Kno0FmBCBFnQfoBzAmZ37rXIk5pHTIEyiHBOUKdITCYHawiuaOy4q8AR3aM4FJMTiPGYrVQJQrFfzrUbWn4o2xloIBk36oM98scok50g/YSoZGI8z61S4qcmXSkKhB+cznmiA0OAabngkyCQGOUVevr0NgVxM1buZRH5aYgzKdEeKWqpIH478ShvecBM50bOm9VvTDKqFUN1hHjaDeHjBys5NCnVdeSiJuQOr3ak8dpiwcG6j5CaWNuxrrDvXLhpbGmW37bJrNLpEN2CaegxRxDBrfZmMlrKIkD6/DCHmS6xF468uxTrKlOvaxGaCu3xFsg3syte1AHi/QKIksj4pHQssK1NtpxsnrDCO7XnWH/3hixi71P0i2lHFpx2AvYsGfI8hlNjNFNHcs7Y8ezpWHcl1CVI6s7+YP8AEkdhQ2F77M8YYCweI9ss1USSbpJGQI4zQZ45F0C6LsoqDIHitl9+mPOLKWyjXdpEKHF4ZpzFxmMYuQ/bR3VqZMG0IiK/NTw+SJqx+8PEeQGmxvb9nAq8Lr3HuziTfzFv8yKj0n6CzqChTzMx/5Mt3U9885Be+e+ZYthVokbcaWfgLr1GSYZocHRsjIAxrxkvgRyKoU23k9l4BOvruh0hqqz+SPjTeNrTOTnQEQyVnzD0nvFPOdQq6MCi8J9UZCIo6vh0/l5E8f/gotpOKgxdqwxxlYD4i1ry19y71Z+ux5/S1r9cC4OYwCsRbo5aabVvXELnRXAtiFx548uVKbHXMtEYqR3M373vBkbsbziunD21xu6DEnTzl7tn/ptoAsruoODS1R//b2WupYIMbE79EEco3RGefMVwGuHNyBOOmNDKC3JVHangV50x2FeYi1YNKjQDzK+NFS2/8xoKnmKMOkTl+HGeWQUwxQU6QezxDKwvcGkdQXr75EXH9Gjdjjl8AQ5ADNuopQIGFaY1fOPJWDWp+ArxpirvIWf3KR2eSZaup9WKoLex06V2zGoqAw12eWZZ+bMRD37IOfcC9BfQNRlXcvtp1/kp2Y/S4YOmDIIOvGLJIj748Byyy79vTb78vT7/7gZmPOfPO+rCxMW01l8T/fq8uVe833F8lNKspaICCs8AGP0rNvqs7oqgpnWS+8DiKNjb7ClHcmeWxDfIn98s6E1aes3DE1UqjAHGMltrtltRYR1Uo0oU4x6F79N39HaCgkwisHcU4d3XZoS+/p/IOtwJaxYqLTmaRChwX12wPf7pvO8oMCs30tg9BXi8VxhKEe3urTXfihvuVCXS7AwiN0V+VsA4PcyhIcwuihRJPbkH6tZwS+C2WjKP7er9vrU4c01eKUTdyQutmo+Uc7bhIl5psy9SGTaepPGw8tzmM3Azy1kxrIGc+K4TPuT3rPxTy+BKgCTpTRTLl6YD7CD3LJmPnT/7rG1YLzjOGz7JghlGn0A+MqyMwoV6RSUqYPDh8us9GFavfP+Q01L+VH5nX7jZU0X0jb+G2ekvP3f0Vxp2DN3i7VgAfFDAZjz6UFUUpxQ8zq8uhslwhBteAuNRujk6x/RHrhZfZIOAWGwO8YKGA+6t5uIHLAGN4jH6X46f2s2OJKK3wOls0bSLOuzQwKwzlG0TpueAuZbR/fggnH1dRB5d12aibDbgqbZ34DlghRU8dYEoRl1RnM9K6upCGFF/dANLVU5NycLoOaohdjHE8RoPB94h9vMhxhhxSDCaWRQbbcY0MXsi3CI3tZ7oCBKSfdDvxxwkkvqvzSCUYyi0a1326S5ajBy66m2yX2rdNV8tTNGlnPGtTizZy3lz6kSDnSXpt2mMJLxLXHrPRnn33fTTYzkp02+oVpjBLK5PUr/Qk1z80/dDAFtNb1zm+6Yf/+Gv58e//hZj+qJziZ3ASTE2BcV/2awlu6Wzfb/q8FgA/n/n2HZViScglaC2tDJdyRl8WzjpFC2uxRr8PTr1462b5CGALbn8eXh+HCkqEKsYIx9Vb+1Yc52KvAfANdhvxXDC5YDQqAM3+lcf6usrMip7iiGFFfHf2nKeLcMN5zcxf33z+tJxuZvymI0W7PilnTrzHG7dQQBGXAJ+EmKYYT1Xp437eqAijAXMvNLA+IF7TZfpefw3I+/XO3tE2JBA4tzPwVgDFMj+3NI4uEPk43Gd/O4YfN1FIbdCIbqHccqTAY5fHmJwUjVBNapZXldpI16Dk0uJiSmndWi6jNPjI7wb+9iRMGLKr+aJeuNuF8ghoZy2+ePQw9ql/+eJZufvNN+WLf/kLRyJ/FavPbLCO9g5i849H33xbHmH/6OtvaRS+Ky8fPmAzx40yQf1ASjAFmuCaBtNjWvwZV6SrVlnXKGPxlte1AHjLs4Q8IGNKyPf4cZNAYucVxKydTfbbZgH/+IJaUiqT4nTyiWPd7tx56x5j2xDVHJzWgwVby2ypHzFc5e4tcm53cFEz6m4iOfkBGQEOr8Y0WnBBDrHOLNF3o69m6y4X95TNRcKOVWmRzpZuq9VfEmvkJW5pGq4gDqUFOXY8413Jgr4iFJOTeeA5SicIlzEWS5rCbQDdKDpCjsh+gVvNBnG3UYXcLdZ56BMoDJ1PT6IjnW5uYfcmlnI62wyOGBVJ0WTpdE+TrlkrQZ/NzdlsNVOfCfRm0tx13y21mGjoJz8lJ/UvHq6gZLEJHVj/Iyg9j6lrN3bwRBsBvso68B/+9rfy8B9fl0csG914/izOqBuFDkV3BpvxSIFemvV/mqWNb1e7rg3Ag3tWkdQ2UEkwhrUgaglf0DldcQ9wxzrg9W0AzDj1DFyZsoshJkAuEBXLx1COzMPB5wUinNeJEFBfhCHXXn/2DGXJGpNjUMihWQ2FSnAOCEywEV9OeGHDARqAiRk7CPTniMPx8AXOxgoNLGK/HFfZWa7cNMJRnZXr2jeMirYBE8TE515hng+uhRp6w3C1krH4Te8cO9zTEMQUWpRuMYxnmPmf1GREFtYvfFneTlWVc5teOXtIGSq1KDuX3Pq0YYqz1XEjZzPxOXbekm/9tsT7Qp4vZKdy7laOzblhDd7bi00Efy1MXgzfEBzubOm0TO1isblyeYjX/TU17T/mnHWkqS1FeTi2cyt2GGZzL7lJEhZhWIfWVI2kKfVMS/4upipT1xLV0vrTz2sDcLNaaVdGEESbdEthQSQSuit59tSSo9HcoJ+9eOcjKgQuHsoetNojAJV+VWjO8ezwmYcXxOQHvkObCmdZZVLMyyePYwVZnMgRijJTQFzWAfE5Fu4sNw+dV9EmZxVIsfwUruUiC3d5kcBdXaa91ZpEbFjtMsBeheNOoDq5RSWdkkn0XXETYZB5h29Cq6tbNf6E4NloKarbnJ29DP3tSedsGG/yNYjDiuEX/W6AG/IqRiQRQHOLH3VGOVqWOo8iGARgWVXQDqy0TAfNmd76l+ZpJoTPBnnerd8hEUZg3EzvIFa+rWPqwamuq3x6rtk6XS5pxfQrLW5y8IKToY5c7gv9jaEz8eiqWK1oZk1FjdhH+/H63q7rA3AqQKE0CywrX7BYlQh+QSyeRKniy62VFlg2eOPjLVZ5sUPLDCCj5J0zDtqZ2MKyTvrccu85TyZBQRYSQux/vlWeozTx5/a6cm/DD6GLNEh6J1Sww2iecOl6430APAdBxL5fgG8GMX0OUW7eKbDEtY+dYr5hWO1Z5xWQpv1cdQsCJ0q4TtwzuE234/wuv7TBGEfJFuKkjRpcUOTI+YP78wzCamGaZuwrnTXTn/FpORObCksewW151ywAFSVIXfJt/WEa5txqmrqUGoxX6CVwF+HpPo3TTvtB7qpdc4D/LrTOk3GHE4sq3qwZXFZQGp9AjRVklOc++6cf7jPlde1FSCNRj9RpDpNy1JTla36c0UbAEXpIey32lqBMQ6YSV0bZJWvw1nwNDF7zcm0AbqZDfDKzrQQsTX4WeJC1Y5IovTwWx98BfSW311UsdhhM7bPDYlP4cS81+4euAhM8tBDBlR333mQYbYuhD1cj2ZIHMUKNKRoSJ2ZxbjVxOSsuhnsiXVQyor4bRqhwm2VM3NlyueWSmuJWoQk4CdgsVKqoGdPARoRG4cQdO/GHw4lTJr7QKDlkNkGD5NBbDEXhzhM2j/k2vLzqy+C7meczYzhr9r6+oozMl4kR2P4IvP87H5d23WXZmPA0TX9Con03eOijy2Dz0dzpv7NNt4bQNQbpw+/W1KTuLmMMv+SBZoVGFCmJDSdOdjLUoAfsdGMjld/GkX59y+tsGvrpaTnqu+jbtxB+6nktAN5lvFURJiAjtegAXOLmL9ZUUxmK1TEnmP6efi3EWJkF8KYxCG7o8kBA3vqIxxycJ1c+RGnm5nvu3gJyawU2UqrkI5cEWE5nRY6LtBhPEItpoUvQDie0AdlaRxkWpEJKMguRrvChRy6N856EM/iOFsDWpSMmG7r+rwbWAslGg3Br0IOQ44Wb5jUZzei9PjPtxENjpHhu46tU3q4oxd63qWnj4aYuORtP8q6zmMykm/hqobRnllf78hlTS6vbKINWEATWoo1i5SvqDD9ZJhFbvGea8ju4OfUaYbcAwq/+snmgHcMLNKEjG7eBOw0y/HxLK60tl/y6mIeweoPbtQB4P5+WoyBp5ed34+BSUSidEFsVidue1Wq+nQjjcBO8OwhPze74JBwdMAqWmHsOuN3Yz4kKivpyT9twL6sg34ycxgXx2DFw+2IOoykqq6iL0zMhak/W8NSTWTT3ayibml+fkX4SLh0YclxBcY3cMKnEXS35hqMTp33uE9KsIsL+eZhpToPj1YBvsAEJk4t5xBsuuve+WbV690eLzJAygzX+aGajHDMSHfavWg7VSNvMUaa3c2k4XgmKs746V69+s1T01cXfwhjQVTOoKTcbGiUN4D9bhzAR2OGc4AYhpqiXcWgYDnhy+Zm/nmHYXO12vQAeJcitlk1UcSt9jTEPGELw9p1PUbq5l9fpETthukrLMsSRWt34Va2pQ2BupqAiZZeVY7GCjP73KGF4eJ5XIwvbcQlE8DvZxQPtPGLHMfFpmnrFaKUFlTFq0+c8xlalGH5Mtj/DSgBjZqIH4MYyXPjkEuThIcGtZv1A50oWckYkCHeEcR91J4sYlMNR2hnHkcDnz+AbURqcVysL3yMNYZh59fWy63wYzY3xxoX3KP+MMKScGnlY66794iVTgV0thwwlvjN9mU7f/WU0/fvAw5mX5iKf1XPfRQQesYZp1G1EUC0sd2MkgKi1alwTMAiphV9dR1bDsllkADWOgbeek+rwFeGf9XH51/UCONQRRCYBWTaDguw+5eAxHs4+1ZtrL8siWs4J1veOTMNFFaHwowgdO5b2mt/oUztJxjFQngcotybt3xJNEIDRRUVIjNAuorn9b4Gte2e7OUVWO1PjLCjH3V2+6jTWEFfDhkDyX4c1PzX9eNa/2RtcvhOxoHYhhME7k0pQqm33/Gs5uYHaaMX8dQFOICEa04s4rds4t2AjiTWCy8yq1bs9zET9tck7UYBEHlJGL/QAETnrp0tr05bgaanMckqvur/op+8i3b3ZvdVxxtr8RGm3j3j2Y2wNY0tdJ1vo9KLfMwG9p49rBfAoMgkboEbtYxDEIiqsbFZieL72xjrrfp8+LsuMU86wG+bsHXZrYTfUAANE5xxvt0SKDrbgwbebLOxxhrSiuWO09rG5BYG1ukiCi5iIvypfENMPaQz04zwsARbiMo2I4+upsWddsdNLAaSRRXeOlqZt/pgahOB9aV9RHo2RkUcCASxSwxHdEJ9kNnUQ5Edrux85rTXHckNJV70K9tNYpaLLaphvea9hNILtrC53X007Z0HM7bMRNnESbpZjyDzgW5/Vt87a1Yytz2bGM3PWM6iWZ8/u6vsQfgbWN+v8XzDFIM0yTTVlYZhAPhdWdRDkFsGeDfGi+Vn7LiX5NrAdvLT0nHf56u9rBfBBBZzLr3STxCBXY4gJkdUTL9yt1OmrcjrnmY/GcRb0jx1q8qheh878g+s7/XQTzbmHGzj8kUMzNhoUehPTIwHcMAzapVHQrRNsPJTQcIK+SJ+KvNhtlaGy2OXDqbA0BAJPQCdlEf6rMkUc2jUi99kmsoy4DJV/zQSlkysUy52zPg7QNXNizBg/nyOj5D/iCU817nOFyKeAvAjyi+7e2KQCOoDNeyi/wsy0W/YJxy480hfXqwqlc2km/Lt4afYm/l9ZDBeDvGByWbwXHL21wVVCvX4ADwLJooj+MN8xhVNiUYMNkBWHFVcd3w6Cl1kD5knmdctJBbgHB8amCvqn/61izZMqVxlDF6yK5s6wUoMaseEuONKAqPi2MUFr79ZOTr0U7IrSNgDGMRfrze2HA3KWpO6pE9DeNALzmMGF2wj3FTSpS4Fsi6KT2OwBswbEyC9hqNxreQ/Qm35FduI7cTmX/kmvSM/8dDAY5EsL3Jn+uEIBYP6N+S0unBtM3Hz3lZ9A93nxOm8aCemc1eR0Bqbp4tWZdW8XXb2NyfsK52yc7zPUawXwM8VEKTWyaM9mL4HHaiw4mxsZClbHKiV4N653E0NFWt0p7rp6zH60C0gcKsMmNkH03CzF9LyIJf8TXLyrwRbUgjv8ovCK2VnEYx9/fJq9tRXTXU6KVj1npOEPvyrvBPkg7Pr2ukcCsfoALKafoBJHvtRLAoofN5zEld9x7wwEXCBRIwPI8KqXdDewGXy+/UtNWzyMz7QTSvtV60ti0kVn20V8PoWdze/t7VoBPKo7KLZxgqx8VwX5Bm8MLjEGAZnxSTj5BFxdTin3CFEdbqayLQiHp9x7b8sNGTmTCnfTaL89K+yYWWNq4NFgEXbleiSgkVbMGuMIWjXYatNVtuWRRrgdy/RF86AHN8xHmnDqJiiPuKVzNdxy6PM03IEOp1wJZDxkdtOw3nUbykNE8VhwwtNlsk5rjX44rUm4wX1weWMkn5qFrgBzg/X7PLwzF5nnS6KuKXjDRw2AaLpsRGG2En3DcIbOzpTAtQJ4lzOJQsKtgAMzAqX19aBcwAnwWAnkNrmCd9px6jG12Ungeo6dNeuhdirXDDX652i9XTRyysoyQZqxVUIUHMbOLQBEP9zxcH9KA/bDT+nrh3QLFx9jvN1ZbXLyXcR2uXiuTMtAQpFG0IZeY+Dt4mX+akLSknTERUJMh/OmYx8wDEMywdxhMkHvt310JwQpyfiXjVzmQXCfvfx+XWrOuvbrfAiXuTjvJlJCNLUncNHL0OQnS+BaAbwRSJKeQMu/kHlD5NUGgoewXQjy+Af2w+bMqMVP75UpDp6bcm9sQBaTWwQGJ1AeojnfoyHYZxWa4AwxmkYg5k5XEA3on2/TkD85HvEpbwMi0BQAN27mjYZ/xXLXD7sJxBy7vGw/59QT9QSEEY1RDSkhl7nq1+jApKZDu1YGzV2AU0mEeA9ZTBP7tWGZHFyZxu6JXQZAXsGt2SkLomkCeBJijciwB3HqqF7n42zm7XmZn2Z32dMGp/0yxrcN4bJQf59m1wrgwTaDFgJaldgT6BJKwB1qRPXFBBD2yWIMfJsJKweI4Q54CV7BHfO4nSCCWL3lud9PnpVNNnhwpxE5nQo4Nz08PeAkUceYBXCLjfgD8MYTwIKDMx6eM9rUpqOBF0zOF6ef74GEbgapJj3mvFeQmY0EJy8COAx+ikgFhm7IaaDOGwZ8BBcH5GrNDVeA6868jiFROF+9ieiGENp1uisOLVqall27aqjt842fGaOxvvmV+Xlz90OXZ0vgWgG8IwZIiP8kTDIsjfMQxNHv5TkOR/ewOAE25UaIACz2HNc57p1ausmS0uecPe1GeZvPXsQ6bxsAV4Md7cJxaRjcqys5XYq6Fm/AAc6t9l7R3CWjW3YHeM4z3OYUWJV5IAqQs3KbOe/+mpIteX+VACK8lpdXQAOwhk0UgODufnJCIoo8tT614PZPGxQLUU6C28argTnWXOs3frg7H3V4NgCu83ZpOrg364y1fRm0sV28NMuo4+2ig6HJG5fAtQL4INfBnZJwJaJGWJKW78G9oJ0cGwZkarUlbqkKvycMbblu/CVnVj1/8GNZffSEjSI4XD5Wlo3F5on24Z3qOgLAHSM/Zo+kIN24JUwkTxV3znrbZ+22M9sOkQLGAX7ERXzG7TJPt1R2ympsE8T2vGbhTcg7omsZD+BGJpvJ4BmgN4X8x0QgbGxQvIxncPlBpzfTNzDtXrDXzr/waJA0lpn5ztn5N1xcfp2JHCd+h1mGb5UMr6uXwLUA+GXEI13Yp5RamiIs9NPSDUCQJqPPyVNNub/Rkzwj2mWk7pb65PsfylN+W6ur9KERxV2A4gQVuD0aK7bqQTHHtNA4yA7x1zFu00KTEWGP07eNsWzs3J3EY5HsCwsQG5RIN0/74g6VTbo5I8q7E1au1eYiaZ0wQ1zn2b+aWYTTt+A9IFgBbCDRsNmVqI4bSHUX4FebbqFwedd9F26Wo8XZ0j7wpysdGoetkld75pee0lirXqhprt0ZU77TfTQi9T2iqMFXowhzeHt9CVwLgPezOCAyDJNAeEIYkgxSaF4SHMTuySRurfMCDj3DPmku4ZyYOmFxyFZsCvGUc5yfIaKfws0n4bROVx1nCqsTZNz4/sjlpDwd3lLpZm9V4hYoxp1KK6LC3xENiOK6T91E2nDu7LLpGbZTZmNGNyKcpH9/wGb7YrElt6b6jR4BBF2SnvDPU/hEuWDpeysXnWmeije6LB7YGIVEXtQfkIiBOE84IcaraafhMAzd6N9f9ukjQIN948v0+ovLNPPzigaofVezsBje3qoErhHAk9AasTRw+JTE5ZfaSZjB2eHIbqnziC1wR1jRdQzQpqZzW2O3dHrBtkxP2GNr9dkTzuRm5hnDWHLhWIoJYXvFZgVyYn8So+CQSUr0/MVe3nBGz7jyaJx9DrpTTM/hKu0RzwH0AjPZdlxZxvLRDTj5sSvcjvPgwpaPiPDcTRBknjqQ9N1HWZAWL/Md/3XMye8At9IFQA5Amf4KqgCtALel4RLcKuLaz7CyAahudIu7lvdBwnDYT1MEFpaky7TFL03PuxuA3HDTyfD+liVwbQB+hgCCUpJz+Zq/BENzp1itZnsDDj7F9sfLKNHczXN2oTYUiqwxdow2na2a7DfvMfNM4ErsErKcO7Xh9J0R3U8OtUUED3Ks5Io/V6K5z3ds2cw2S3434pYbCnKVbD5j6Shc0nRmD/n1NWosum3P17luIG9uzINXPCOACkY5JlaDvrqg58+0prY99RXh2gZNiSX8ZHi1JSFkXBhuvPHFe0STRkSh+/ZLwwjngn36a/dqPXy8QQlcG4BHXhsxARDpRsKVq7S+eMjqYQZpYR9adV4cEoreM4CNAwrZu3yFHVVvc0TNAX3xbfc/R5GmjC/3nULzrtgfCjL6z1OAU9H7gP54zDUPOECOxmHYbK20B/feYl34DuJ+rPYKO+Mmjf5IRxtbl/BNO04yWw0l9ftneURkNc4Wd0uAEQY4E6FRnqSpcVitW2MhirMa0r56jbzk2L4m6b6fxzQNi9ookBYbWdIS2a/hGnY/WQN/w5dLS+DaAFyysuIlgCAwbtBGUoMU4q8Srua5QR8ghfM6Du3uKg6Z+ZvF6RKnkN7kLOitH5cAOFp05pPHiZKEE8cGofF2c0PB7a4seRAh/XpFWji/s9FiiigisY2Mw25xUgdSgxsxCP5Ilul1RhvheYJK7OBqn77BhLS86aVTs3zVawDSGrdw70cfgIwyxDzKllt71kjDPRnzGVtA8+K7DZimaZOOrQfrpDUU4Tet4m786aZnOHx9qxK4NgB/Za4htiBTiAmGkP3EIDmAB6d3muhtjiy6+/E9gA7IGa6SMzu7bOXWrbLGzqrPAN8uYrV7oB+gYAPRTDFFTJ2QXDlIkLuLV2KWmhzbDfjYzDEUVSQsCB1zh9/cKopF23FKhhIBanNOG2XzB4bg5mNG2wLj71PlYNSpscq/ouD113lgvN71qxuBAC2emzZ9EC5JENzmZ4SWMeb0mzq+sx9eOa0RC+4AuE/BbfmrAzEMv8KRDiNMc6f7JhWEg4hPF3npxjAyrGo4fLxRCVxLgIdYJwEFifjkiltXJo4B54GA8+XmnTtlBW4t2OloBuGqGHO7I/cfV6T258owD3GXQwtqV4RJmP5cFjrBENc+iih3MG3RDYgUPx5S6KqyWB/uEJt9ePu19sGJe8a14UgD2Q/HpwoxA3gDkLectfjad//Z0tQ3e9P3ALjSCVeUr8mLroXdkjTXzvgFc4Dbm+9E3LlIN2HRbul4UE+mM73WBsH8+09ArYloXofP15fANQG4JNGu5CaSAtAJakrx0FfNEJehFjdBmERrvsgJkcs3bpYF9kdXPPYwePcyf0a/+wfOk3r04EFMZ/Uki1MACcsK7ixxC3CVTqejaqGDBoP4BWTjYqbK7oAa+G0my2ysseUy+7QtIvJPKZZPsbHjBOeMwcHd3cXTT0foNhigdN3vt7YcvuszYdeFMii9RBWllJdArm8BPrl1AD2mr5Jf7Ds3UdQ13/V94Lu9mCEb3Ay3X0YtrBhuMwG4095n/GoQw8fblcA1AXhmupFOEMaATBu54qa+SkyuCltYBtyI4QsAXO7pyRMHAHkXRdg6c9Cfu8EDxxTto2BzoUnj4n67eSLrwGI2mITv5TBZcHUbAsVZ6DgIFzvF9zyUEDEfjbrSgHu6NQJWFzBO/99x9dhogsbjlOWm0ThJ7BHDz3Mz7AblV8YgmHXHM8s333Wv/0ifYAxX8aVVd9UI9N8iU/KJsAy7/njp/PTfMoK+yfD9DUrgWgB8QE5BMOZaQGDqEZF13NdPiQkexF5np6zrni4rnPJ56+OPyxwAn6BfbV/5mBVkLg11B5dttN67bOuk5tz90uK4ILXhLFIR0jPHbpjIzLMYS+a0C0T0CTduwK1xBEABsWeVudNK9MEJyzXkwZmldX5HNAZxtBCgdl24E248hMGpsIq/7uNG4t6gOl/v5KdCOA+tC+4r+NKdia/x1bQFeCnormdRXYbT5jj96MXuSRtyjLXqGhqpTvVjfL5HQrKRa9YZyvD+UyVwLQDeZTKpIegkgJ1AbxjXFjYbCz08D/wGirUbnO08w7CYhw7aL9eHx9R6MJ5H806w9jsOqYfYXDnmUbYjbOAAbCHk0TKN5jsIFa49TT9aMO/ZGPA8Yvw8KTQfDqEpqru67JDpsNNq/UhspBr/atFdVaaiz/PEj/fh4sT5wV0V6K9Kl8BskoduGnf2aRm7YMeNLV2a68hEzImnHKIBpkxsSGOrZ3UflFkU0KsiG5q/tgSuEcBTzJMlOp5sX3sUZOdf0kicme0STUA0h2h+49NPOLz9HlsXz8VwmdxEcM0vOUR2B836/XLAMtEX9Jd3AaVEq+LtBG26AHf/NpdbughFoLtr6T5mIBsgH/AAvIlhXJMGiDfOLFtHOqA/Podyz8ZBgLv81KNn1aQ7130SSWB/bAfpwJz8SpctJVfeX52Gvn1w3eq0vVMjUQ7m0/zGOnhm7EWZkc9xGjfF9Zjui3SzgwS1TSPquWtuBa3eQ4lHvUpc/Qg1MODhdWkJ/IrUc2l6rmxoHQumICqJwY8gCckiuWSIzRCTyqzZlRtl4e5dgI54zoaH9p3lpnJOzyRb5pzwOwyf3WSyi3PEYwaXRKg4LReG+Pw5wUUzh9YE5aT9aPc559uYTYbxS4T21Z2Prui/TRcgRH+JlXBdG+7Gix5l5Iw2RfQ4ala/2P/cVyTjkkj6MTc3558XvNXytw5sFH22eknl5jSNIueysdmFIxd2bSKPuHO+wC5r9G0AY5UeXLyvpb8Q1zmDKGvMsvbPWf4OP68RB6f2gho7kgzCslIxgnZin/ExuTSENcPc72mUbJNwzVH6vKkRk8Ow7xogW0BsvwEX37h5u7ycmS+741OI6C4CsRdPYIAahMac8RhGG0eUVqNOdIr0IJwfEVdwaq47FWx52gkAR9EGAkJVoLuY9uo4uwo2vpNjJcmaK8PoX+e/m11XAmly/vtN/UXbYhCv8tAifMVzUP41CIOx4XP0wjkHs/9/e2faGMWRpOGSBAIdgAAf4HO8Hu+c/v+/Y/fDzM6MPbbHB2BOAboP9n3eyKjKLqkbgWlQS1VSdeURGRkZmZFH5KWbWy8pL+bV8yH9bMqh0uTK3U3dvb23o0VBWpMfh1sS+PiIOufOVJPcuR4f/qSufeXiScO9DC7xJpwrw7T8xu+ZacERg6y965KAMMIwlGJ0q7lRZFl3c3M18JK6w0xP+ZIDlQJDSXApaLSuvNxQImlTl1/jc3f5wa7igyJNrTctMuNFNpPsEaaMqynIOba0sEKDFG2sQ2cXG3PhCDytE3EgzGjSmaqjVaM1p1fwtp9aGGrzq9KBgNVCRnjbqciUzgX1drjJlTUAWTFSC3vnHT0j9tirNffSX2pnh+5jBGv3BL3OndYxQ7YOp8zQldnpEHbmWnAY1taACK1yGPGJMbPG3xKeq9oaek1dc67vpTvM9JYhBM/NJ8+fPmk4A/3uj9oPfueux4T7vgIIbbgEXvNfFEQOcvC0mLrXVCQXtJ/bFQKFWF1sxui6wMyFFLkXSCEIophPj6m3A7X4dGU5thlF3dqNG82Gehfb2oe+t9GJmdC2D6iMj09xZ1ounmj70wZcBgWkxgNMG6wESNgjHsX/pR8isFAGJC1U5glxUdkewEO5x6o40QuNeucVjmW++bqnZOrBGbQm/S2dLUHpkt/wIE6eUddwO8lvv4Xt2zNtJ8FVwySe/Eb6lP5MYAF+XfwEP1sCXnMvzcpVM0jCwxzzigTnhsbWN2590Cype45yy+NvwSPkB+oSMvbjvLYnErB17Tbbkp3L+7LQUlAQdLfGar1RBkk6JWihLPImFHU70cAzhbanXWbSvLmAIdTsYuMYZe8PpxUXLEMDWjbWtq9IB8D6djTMIY1ZRDNR47/HFeLazbSPD/6GferYZNY/KYneVPdFN7KAUMuXECHsmIHOtOMz6Znsf1Isk2OIOKjM3/TjhsnpJ9VvDv+ZEnDYb2EurYcU3H6wIjyX1TVfk+b6g88+bd77+ONmWV10ji1mswfCe6A14hx+QGvKDrMddbu3ta6cQxn35M51ZcxJu4JVZCHkLGHVvWMXdRTTxQMpjHQYBEq2y7TQpQsOTr2Mt1HKrWs12+NHj6wpvqYlriyaIRwaZg588NZRKh650c0nnpg372d8KdQlvXWhA7L41s6tuY+p9XhbBhEADX6VvkMt95ujm6N/6HbXlXTFf0D2WrYufWGK6uFtJeC3x0NZdTqdOiV0Cs+ZGYObNy2PMFAyGH9HS8FYb0Xj7uvSnN+4fau5qrXni9KOM1ZGYt3NVTlB2Om2X9KSUQ5XZDzM4YyUuixfrmGNm4KpV617LmJhTE0Xy/eAqWX2DjQqBf7kTheeXWXci7ajcTiXISC8bsEFR+tvgdcYlSWrVtg5NW3inFSKdBTr+NZ2A4z5KZwZ4/tunMkj51eJPtMCv9L8biibfqyUJZenKUV1hlrwwipKSykwdLnd8VNTzj7va8x9I9z6sjQVrbVBC3NpQS+xVFRd95uCuf3JR83O/fvNzoMHzYG61HNaOorSB7yUPObAaV2tKJNgWzEnTbqVa8Lppatq9rFjXlAtQvfU8GrdmRP3fWUSes/zQjuVg+ha0OWHqh1ikY0CzXsQH8KcNY1A/bBLq5jKd/TTeo86t7aaBzgmthbgDRrAbfytAT66+pN7EWjZccuXLvtZf6Yl5GeyBXfNrwLicqGC5KkZpr6kWLuqqa9lTYFZe07rrcetsAQ0u0wou2jFlzRfjtKLM9gobPEIqysRZYm+LF7hdBg0vvmCj4cKwy2yBNUtuXoHxiL/PXX/N7WYgxdtvCsK4fN8uGhljpi16bnxJDAGBfVvJSe181hzX1b69rEB34BHx8GINWiXUIu3vPAzekQMaaiaqQz0mwHfAA3nDcUZasGjIFAgokVQVlKOJGSsF2cJ6Kq05yt6F70l85L9mNai5aVlRoPLfm2Wke7o+KZtzVkzDmc1le8tsyJI5S0rD9pyhaMVZh07woxQU0GowXarjWAzrlYEza7iYqoMYWY+/Mmjh81VjcVXb+hWFQk1BZmtoivSFVxhnh4h11h8nzXpVCYu6C7yvXJ6stFnCnN+E0najT4dp/lVhE5Pidgpktmn07KISG/wPAD4LdX1NKk6k7jPkIBH/kTxz+KgokHXWAK2qJVTy9Kg03rTXWcKC4FhrbePM5ayiwUV+xoXb+iSgke6JviBDl58IgHkPDUEmUsLqTXc4mCS1S24zjGfm9Oto8LJKS+HWpllxR2VTalg0KYfLOilq63WCWXbplZr8VJB4MYCFyoJVsOxP5yxeIzDIz3EjhDmV8aZfUhH/VLpxWaebesodrW+AJ7xACcG8/vaT8b12ghmNOAZEXCyj2LPb3SdMXHW2fyczjLXSrXFFR2ooLE1687jQAWABaNCtK8dZLSS8xIyLiS8//Mvzc///q754V/fNPd0f9muFGLsBqMQtgWFAudoSys+t98s0E2/oHcRgYe1URmwzBXBP1BrzoV/aqrcnWfV1oEqjxfqQUALFYebflUKqOzZf+4TWzNdijCFO7/yeukTnDkKNs79KOSbdXEFqR4PvR6nWehpvbepXLkuSsOWLSkifS2U/NB1ZMVdU3JS+ts8qwOfIjO9mWk9Z2gMThEgKxErNYj6of7naON5Kc4WJdhMiy3pkj+mpMxS/XjOVYLlY5UIJ4XXnpRfW2x4kLBvM0ZWFx0B9CsYATuujA93uvh09ekNeCwuM+PIyDtB0nWXoPMSDs07d45ztTD3jxOHKxCuEpLWnum7y0WLjw7B9BL3b3zeFJ7fSIaDR27JKH5SGdM1p7fks+towenV4M0fld/wvDIHzkgLXtJdBA+pomiwgMJKLnV3L0trvqruORtJmF9OiWG8fEk7yC7SZae7vrzn88lXdRHBsnY8XVJ32yvNqvKF0eVN+MMcnh6PS1DpXlIrsy2SxxsuMEjIPUanhdaCl01tOnmmIQA3nbJ09ZLuLEPJxribgyCvSV/wVIc/bj9+2OxvtCSDaeSpSBtx71tSuPPb939b9uxlZctlAVbkVK6sGETQQy8S/AU+NOknTWlJSSb0FYO9LT68ajxtJaeyxZPJm4TnDLXgUdOTahLuV1LImueV69eaKxKWZV1wwNw3Qk+hyRbWXWgpt1h55lNStRFilQpBirkl1ksX7ffx5YSuteJWhCngaMiZAqOQ4kZcAFm4VbmwPZIuBgdLbOh+8qfakkpvgXBQviAhZwy+ymUInDQj2qKod1mJUPhpM9tiE3F1YKfKRJ7Uj/mCY5sUuajVJl8Q9qgA+qECA64OXyOcsjk5POVo3ij6s9WCZ2FX880GD1pMtoaufaDFLVqeepmdY2odUYB5tZrGfRzFxAM4rTlXEq1Ie31FgnVF3fllbfrYW5/XQtOoNCiLLnKKKwoYLkWpp0KpEX2jNry07CKBdeqSfmpfBBelHMo4CvG+WnoE+6HOf1tSJXTxqg570OUKdOdpxb2dkt1W9C4yDuGxcBdCRmkRKTzyayuAcHkrvwhk28qMiTHENcQTRmKKFAXFwU0CF5j2i088yfm057eDKC5HHBLy1b7Z03i1UG8e+nXoOFMtuFnqEhPFhGOR2bHE5pKrmgNno4nHs/JGwFlfzg4wvoyJaT0QeLTatMC51JQufxZFhAdG48KPY9IPIo57tD5lNxp4acEdXjCiJ7voMJ7TXTiK+ZnWvD/Tmnemzmi5eJjaYzjByw4zeh3UQlG4iSsoMrDjh5J43oVwZ9ymSz8Iuv71FLo68hI0eJg2+aegp1ObQjMb1+B7a7VLBz2YjnLgVLbgKRB9cse1Dm2BJudVUNC5Hujrtlld4hV1dRl/z2vaCfEBjDO90Wgj2Lhw8mkjTTiHDfjaYN1L9kS3mrAQhSOU8Y4fDHqK0BLWfvo1CpDrza4mt4+Gttih/OMVWjLNKf4DteI70tJv63WlIjdXAmq1l9WDuIJiUMOKi5oJ4Iw2DyscF/P9qjAsRYpZ/8m35FPau5jfvimEfJR1YQuuJUXmHTzhFf9GfRNq+L4qB85cCx57tmk9mFPW/mopypYl4Es6XMC7s5JDbmEEJy27t4si8Gq5OW3l/i8/N/d++tELUbak6aYSqAsgEowcp5st+gk70k0Lq0qDCoQWnJ5BcQOIDSu8MB+NO5r0TZ3wwh3i0EArTot9WbSzmo5hA5p/mkTqFeNypEHHmxAHaJ/WkxXOyfCXirLj7smCDVDHcuBUtuDHUjrBsSvmCEARPs1Dc+f20ipTY9d8cghCEkKoX8bnatFfHLJcVUodtY5MVz3TTq97//mhuav3qVaa+YhkCSiTWw6MhPHwzdYTYfMyM/yIQQKtMAjq3Lz6ESxr0+PZXBkZi19UeHasobnf0mIXrjHe0rXFaNMv6LBHWmfm7zm/jLXpuZ49V7MRD8MM19CFNEciWpLEsL/8F+qCwpfDvmmIjDu/xl+IeVc0vek0vkt8Z0LAzcCUOxVVrxZTC8gtIcu62IAVbJdZnkorqIf5ZqSArjBCOqeD/HNahptLdtSi7kjo9pifVgt7obT2DqxSRyUy8sjK6DjERF/5EwetN+MEhNOr5iS0Lsj6kdH1A5UAt5rubG5ZuFl0I8nVRhi18qIX4aY1N46MBXogwPHQc7CYB0kmgx8eQ4VxzK/pGeP3Lpz79Li7/vJkvAtSZyLOUyngJ+3SjQqaSoEKPkVb27q9oMRz3zodZVUCvuT5b41jJRSsmqKdR0wUROKBAKrFpFWXMC1LwbXEji5QIswAGYo8VdebkTxOPQEyGBBFwKlHAD08lGCz3zn2trjlRQeAgM5RgqFHFQnr4F9oHhgn7jrjCiQE2z0AxUfaeB2PagwowSHuEitCL8/owwhwzGPSx/idCudMKN98nPC0DN+TcuBUCngSn4I+Ksjp232zHPBFZSYx0TQT2vObzfUPdCqqpryw+2w0tY60mr5IT8JA75l3XxtMNjUn/fzxE7fgKL8445y2sYgO8miZTrtsfkYFxmInqaObrgCSwXkNA1gGSyUCLK07uIiXrzX36jlwbxlz4+wt18DbLTfadMbg7G7bVQBI4E0hhwBwYMc9nlGK0vU0f/sUY+/SY7ab/NrtNKfntNB2qgU8mZSCnvbjBF4i4zGtBVylY1W7s27q1hJuLmEnWTS2atsYG6vrTCtOCVLbbb9NjYHv/Pv75sd//Evj7x+bdWnQaVEZC/O4VZa00roiTV2B7IocfmErQk5ACfkBY3ENA+bn1DorLGNnnnk16ZjQ5jP2pnJ5pveKKqZFzb97lZ02xqxq4c2S5sO3uFFFYYMWBbSUx9cY5YeTqdO3RCOAeDqa06X74hdUdW7v2gRNpMV0TyAeuid4v+tkvNP4T7eAVyVuXLcTEL+UbDZ1qOXjKN73danBrf/6XEcz3fZGE5pLutsGoyX0tUYqGGi51WJyVdH9H39q7unCwSf3f7Vmm65ztLk0xApb6Am5okh1BGIbKWQIIhBqralQOJKIOgUBjwqqCCNw8mfRCzvLWLbKdBmBvTecixhYVSchX7/4QBjBqZfkEmOJtMTmcFEh4jGOa0bT/hQUrf2dGFpWtoYeGbiPpzRDJURtT7cewnNhfSsC3i9mpU4ey+DjWujMsJE8DkmzwMyxkYNlqTqJ5YMvvmg++8ufm8/++N/NzU9uSeBZ4CLBorusFvnignaYFYSHTEvp3daFgw91gurDO3es1T7c341TVFQ6WoepxQAAHQVJREFUAlSGUlJMP+7ywAmBsldLZJc0t7YIuaRb8m1YhzKsOIOAyz+PU+ZI5Re0+PpjCS3d86ua5ruiVXic9bZJBVHSTaSO2RIPPUEA/DY9hYw+WbVfR+m7NFUUVsbjKRJAwkxIyASv49GeUdepC3hfuIOP5NDLs+DYsA6qQm5E+koJhZZ5gQ0lUqbd/Oyz5nd//XPz6Z//1Lz/+ac65OG69n9LuebBtMRBTd98FhCZUWLR7eVUFXZ3sejkgAMWJJAhuBkXJAfNBE9hgoxMCV/7pWN6MP4WlOoXae6lES/upA/hVvNeVrVtSZuuuXBtI2UVnS5HsxadQxh5adGtfgc/T0mHhdyRZ4QdHZnUCHA6f80Pj2+CexidHJOLm1Po5GYKZyFdp4HbUxXwFND4RpZEVkX2jbYzR9mR4Vsf53VksQVGJWNOu70uqEu+qpabu8Y++uqr5tO//qW59eUXzZUPtDxVrbcGs1E4snRgQ9oQLl65syLsorruF/UFGj074BQ+R0shkz+Px+9ypYsc3WE7u9scqYTygJUEO7wF2cMC+YBUru14WjDcP+7toxoqbD3jiuEtjcO5nliwemNfuGophbVm31FGLK2eQH6O3/iDJn5Lw945CCUU8PIEzWGu7enf+byeKXop0EFMvdgkzW0PiExBMSmYmr5IldJdwgKBf2BKmxzK86boTnyz/J2qgMOYWriDUZEtXfF6BfZlwfUAVK2ZVqotaoXamhRp73/+WXP7qy+b27//srn1+y+aNZ17fompMe/ECkocp3KfFuJQByhy3PGOxryb2s31VAcr7kiJdaDWM7TnFLIoVAgyUVKqXFhJlXBADqnJFI2mJF0diIB6qVDCCGy2VKBmeox5d5assgedRTeHWqrKY+H2dFmn06ewEx6aCB8G4rLFH4zF2n4LZAAd85vwx3i91Kmu7I4CH8UM3fHCT0504bimOMkFZSg8i7QBl+HJk0xXuo3GlmHS9Xio9D3b36kLeLIPJvcZn3mWY8quZYpQFBhXEAoc4cHgoq1WTVNPl7Sl8v0Pm8+//rr57K9/Uuv9ZXP9o1s6uUUbNNRl9wYNtxqleCi4hULYWMCy8XS9Wde4+8F33zc//d/fdZLLz83m+rpb0wXF7TlqSCmEW0ZljekuUeQKpyt6gEIvtPpx3EE5wu3wbQsVSCmuVpbJnVNldrXgZUcbUHwIBHPjdN+JR+mle+517cKVvIrYSxyKFNCIvxAtN6+zL3QFfOcXhIY9Ke+whe/r/NZDmNHwpDjSTKxJCae3bCvdW3pZrovikSegMZUKDTcFijTiPvrUOGufcfA1zFk0T03AYWgyNb+vxMDMeQIhlWpC3YrKioxwg+eSxtzvffJx8/Efvmo++eMf1Ip/4r3fLEMN4RNwibxuXUBHIWIX172ffmp+/Pvfm5//8c9mXdrz3e3NZkFCFZs4GDsHDuKO1hsHWY4R7gBNwglZIg8PFVrhoxFW4xSllOIbwwNwc0Y669FZm87NJ+gFqBWsY1BPhH3hUWlFTyDwI7JdXF2MYUp7QGSLiC3plLGmE6ueDFdDhc/43+TxeOGOsMDBPrNQEcEXelObSjObe7jrjZkH1gW1lXwb7fGUQeer0NqiO+OGqQn4yflWZQsZ3xatbE8KJoHhQhFlfHxZBxPe/Oh2c/uLL5oPf/d5c/32h7r3e0kCJByMWakQVHB44mpgJIvSxDvnY5nWHzxq7nz/n+abv6n1/ubb5lB7szWZrhY1Ch8VicfJxE2wwKBfnqSbLz7dkz64hFl0F5Ao/GGxm4weAgiWXWusfefqXO9iUwvuU1mlSfeFhFK0sT7dB0moFaeXQdzQ2D1ykxWXqBCTmlq4O2hMgSXhRv0m2WpBTuGeBD/iZ9ojZoR5T0LNlcrP9bJt9kBDFm6CtYArfcTVURjhkrsjeGVp2VEC1Nzpw551O2X51D1dRmYWhgsZZY23cpCVaTe0Su2DTz7SgQ5arcY1RCr8dGPjJYxFVd/M6fyqwHBNEevONQZ/ev+hj05iLtpd37aEELSEkZEHG9VQ99dit3/9E7DpH4WULjfiRxQU2hQSm5kPV0u2JU36tl6GEfQkLqky864yLX7x3ePqobjQKgK+wiI89DZam12hJSpMQ9stU9NVpEDx1AIULq/ym+l5WRjzpPA0aXEFp4qVXhX3tXlfgBEWbG06M711LImldhvMyYG30oKPzQJ7UPgSohTELI8U2ErAEAIE/FBNE8J8/b2bzc33WYqq88N1npmq/AIfNb/lW9hpzVuFlFCyhBTBWdbyz2VVFIsSmAW5s/6bWy0RQgSAngBw7gdAil5odRcTmm3H7eiTKWp9BCvKZRXmF2WqTGlxT0PuoOK18k+KPhd0CThxeduozmi7pN1xLOTZX9By1n3FYN4YsVtr4gQHpMUnRL6jJYS4swfcbxPtwHGS34iXX1PpL1UwewAuaqajrY6Vrj6NbVrbiIBIjKPQ0XNpAc+1YWoCnizPrHwVLmcYcKSZzMxWx+vIJXycH35JU0kXND/MzjAr6yj0Lvj6UmJAUJAkTZIqt9R4M85jXrwtXI4lA5UQwFd/ia+gFYbuyTiO+OEhR9xNP1Ys/Og/2nV0AxqLahxKd5UdZitawRbddLrnXEgYO8uycBuF0NjudIMzfe1x5Icw+XTCnZSnz/HfOuxRCCqvo67hkvhVzamC9cIfDUn4UnGa//CZVwGyy08VlSjj66p3XCQ92Ml8GIvkDHlMTcCTR5mttR23zLR091eOuEcY/ZbA5aMGWotS3Jyy9FNdOs0d+7hhTmWh1S0teFQFWR0IDaWHx5GCV62yCtmehIkjkkNji6deSpv83XVWYXPXGSf5uoWXyeNywbqdSeLkjxEsxz0GoxKS54F6CUIS4UtzQzGGJsafTx89idNkJORXdMsJCYiLGhZUEYgHwsHLbZytpt+xE7OoUmTR25C/IiQK4k3aiDnM5WsanBoQZGAMtmY4MHRmA9r/yM8okOgBTzhSAdAF53hpeO8DLjgyugg7ehNnQaGRUIRxeOPBXD+RhqA03B2mAqn9KudzYcyi/1YS+zJGOx/HUEJYXjXc7jYj2JxjxqaQrXX2brP6S1MrKvQpnEY1Emm0HPtcS6RW8hmnmQqH134r3EgBRsiNgB9Eglamm96pPFuolxmSFIYIMWZWCDlmucWfNHi6SIo2NOm06EyNMfb2raPSpLMsl4CmuAin7aWyMFL5x+k2aYtv/vKNFDMESXOXAmhJetO140e6jH4DX1QCfVjSyGuNuYSb8895XcGWfKOSxh8MxlIR0McX1HUAEberAacrKUv3tJ+371Rb8I79xeTuF+bydgDB9549a+42c22Y85gNIf31p5+blRs3m9UP39eCF+240u6si2y6dn9P4ujqS0hBVN5DtRrb0pY/vXuvuf/9D83Dn37xwYfqK0ah0m92D9vCoOAmTT+0cyHmpSDjV9FdGZ3OsAcsJU//fo1FAR2XBNOkaqzgLa0q8AdSOLGF9UAbYRaXlS406ZolQJu+w1ntJM4MAmPGqvAtPbh17rLYjkvcRiqTvQsNeINKP1QMfqqPvcJ1wm9C5bcgCMSOjt4Sgs3FEigSOeyCnosfEe+Kj28JY3ehgV88fBM7dszRW7EnTnpqCOxJB+bz9UxVwPusrNmcZrqamR241eZ+eOwIwgUVbgT1sYT08pXvtST1fR2oeKlZk2acO8C5lZP7yFh0Su6zrhyNNC315iMtbtHVRHe//a65pwUuj+/e1X1kW754sKjTQmARPsVlGSpUYWbRiGnkm8RCWO8hbP9JcPslAI7FI4RdvQz1Tuiqb+oAyG2Nw5fXrlvfsKRTaS5r6+sGR0+pu8+KO3dnSw0TPZcWnct1CmsdXVfgO7GB1lHRGaV+NPyo36gtEpTwxNCZxT/RTLd8V4pELojgjrZc1JKUp3gbE4GTPy2m1mkkasAyrvTA3ndLv/PwfSsCXjPY5uJQ8q3lc51B9kvgIkkUFdZd88de7afqnuu2guaCCv2uWr2PdNzRe5/u6bbOG7qDTOKtC0QpLAj3jnaL0SV/9OMvzZ1/fdv88n//0P7v75pnWtxyqMLG+nOii0KumEQAAoedlWuQwE0pqi1CmSdYn3deqC9Jsq024xCYC6A+PqVF3zjVJeJyMVR80YU9dDf96aPHmhdeb9Z0pzmbTVY4p13r7tfppkMbvNA+80IlmBWXHn7crMmePMS9PEFfn0pTEBAKe9S38k9EEVtrC4MpKOHDjDv4jJNZCulMODKafKGHgqKN7nk+hPLbBT+WnhZeiJNegoQ5AsOb8/y8FQE/CYMzYzJPI1v4lYsFjayK7KIYo6jhTPNn9x80d779t89hYxMIXVudoOATVLhwkPxljTdwd7/7obnzzXfNnX9+o+75981T3R66J8Gf0+2gnYBnASHqpEZm4YkFJYUmHI55oI2//oOLXS2YBYquqeOoiqErEVUmSseG1sZvam06Vw6zio1DIHjnpEmnK6//YI8wY+xEpER2DInhdPRXIUqgMI377VBmKru01n4ZHrcudZFeWmy/yi96V+zHR9h9bbCE3z0REBSEiZdvFxsA3YN7wqVr357u5+k7ZQEPFmdRIKOdQZlLVQ5URvPfGWbHUjxyXAgG/YNJE0bNgcZxT3TMsddxa5knAntBrQHvvG4LQQp2dBTy4x/+0/zwP/+rE1v+qVb852bjoU5s0brnBQlPNzVD1Iq0CHaQmZTFN9yiiKQPBOGOPdMaEL3fEsA4up8AQmBlQomICo0VdXTTd1Q5HUggLixomaoOYpzXxYQAEY8VUmjkZSdsoM+eSNhAlfWUKwQc7FX4agB+oD1eW2zrcIRb+tSQTohQdvjMA5xLmlq6IKT0DnCzu/IJ4abLjlKRiwd9Gi1hS3iTQnprIl5iPp7ylwQ6g95TFnA4lqyODIpiEILuMlCYejTzMlwBwNoCqRDLjDDQ1duR0oz90xQUNQMNF/1saZ35ki47oFCjMf9Vp7X8+Le/NfekWGP32IEqgwsqcEw8RdvXIi8R1oIRtABxFCrAS9XVhu0bAkOG72GRJ+GhFRMVDuNwzmR/Lm36hlrxFQn2IpcSqlfC/D9ntXGlscYNjgrZyZavh90049b5A+xgxOY/bORQOHemgOr/xsKctuaw4BZFYSBygKiGlE/FLTa9yBIJlbviUQu+R0UmpRsr+KjUWLrqB2KSceFS6CuW6pNg5uNYqCrAOTFOVcBLGWpZSb723eypAlLKdoHN7MIaohMuEdpFUg64ufVVgThUzf9cXe59FRCmvrgL3EtXae0k/Nzk+UgKtS35NVK2LSgMBSwKIXj1+r+L20ovSCgP8ZqC/OlAE8Rf4HhSXGzxT/GJqAQlOP9XiEJSrXxi/P1EPQ1uWGHb65JWsq1JicgJL9s6u21XrffBC24yjbgY00MaY3MQ84cdOnLyCT2Cz2Nnqk5/iOUFH0LRze+79iz0+lP9dGmSqdCaFQcVLiv/WHRk3ilyKHAeWagVB2sZTJOT7rzhsEkv7FHvK6Ys0SuIbsbrxlEIKGwiTfmEU3HxJwI4fAKd4+9UBXyUr0U4Rh1tG58ZJUcFdTRTo4B46Yg8mRdn4csGGlq1ePOaStJpxQZi/tr3gG3plhJaeBXMKHRRXLtCG8JAoKSpoyDiq93DD8pq6pyk1iV9/FW8aQ+o/MW1xCmk0EZvhF1l67pe+MGde16iekXKxCVtkV1c1IGMmhd/IcHkZV58XtJFchHZaCHzS/9EPRUJ1gXOWOcSBS0LpRJwrBK8BaYW9UVQLaxW0EFbpBBT95CGSIW/GBkmwFMZEXAOiwQEZdq+xtdoyg80w5HwGhQJMDKHfNuUrmFD23S9/h4dinBRWYAjYoK842jpUxg0QGuGw3yen6kLeDC6lzlytEs665vGOjOyZUi3zDS6egHfYefOEs4xR8vdMG6d32oz2fupGZOrO5itNq0ULQmIEm9niBiNLkAEJpv+Q4jCP0K2odNRaMItfbqvfNJSoInDDwVYL7KFGwrDPQ0juFr41x9+0mkz6p5//JHSIF/pI+iZ7+pFwBeXtU5d8+S08nEElYRLfpk+8F6Scu4q1yhzT5s25nClk7X58oOmWHwDfVg6ksJUfguxKajhGvCeYlRYQLx+X72mbS0+2qCSUm+DraC7Et4dvRxJ/UIVDWoVpsw8w/H4kdYjsMaeIZb0EFQApmW80BJXIUkmwcFDmyIBJRkVjL3P1c/UBBzmJoPzm5wlG3DLzMlv+vfh053vOD93BfFX1/uFtOJ1DClwbhVAogc8rd7OLh096c8Xwe6KWA0D1tqnjrEg7H9MfJeCSHemvrhj5ZWEolfYVfd1Xbvdrqxea3bXbnjd/GUtdlm9tiYpoPWea65J18CxymxEoTXfl2Ag4GA0hZIVxu7XdRzz2g118fVe0oWGbM5BG89NMHGGewnUp7uQBF1BZfyGhRj0Ioz6RrusCkotN3P4zxgaqZJCl8ACl21VWhtK0xXRyyYaDpjkNFmGUJxFx3QZglpktTC88MhxBHHJJmzF199CWaET38h9V9BYz9kzNQEf5WMwGTdnRlvTdpmTfmQQMM6ozK3MQYD0tNjS327dT/qzSwkQFle02WxcBUIFJlFEFL2IEqW+4ZPQclDIGhof7PkF4sgjABe0ggY2ZMFzWI+hKdyMYyV/1EBqyXc1Nt3WclyE/bJa4jXN889rscuuTn69KMXbmgSXm0g5VZaTX/YlNNF6I3p6hAYF3ar0ElxHvLS67GWv9GzwZ8SL7FhI+RLguCe77oIhXAo1gcHk8bdMCLmVZ2qdr0nI1z685e63NeWyozxksdKa6HkhfQibajjVlmOr5osQR++NWCY/SSk0Z27y7UJGakzvZFRn0ndqAp6MT0anvc/Fvj9wdWak/7hw6R7ZK2j/R2HDD3xH487iMLYoK0wdsi4wYB1HFX7xJER+cW2LWiEIu+u6AlQXTPzocSAodF03pXB7rptXEH6Wq16XwEo7pjvXlptruv/cVzNpXI6AW2ChXwiiGtIYXHPnVA4IOhp4NubEqjzBQIQqk0KWBDdMNe2jqQpbVAiqPHMMbkFXtGBSpUqP4qLOdb+sIcSOuuUcQ8U4e0vCzFHVrMSj686eApRs3OhC2OwFJJv7Pa2IffQ3ac3vqO/5tU1NwGuWZoFpS1DtOcmsckJR62daK27FHxSG4cdudD1VxtwaCBokPCrINqa9hzidWzrl34F0pkAGvjBlw5buCVl/M95WjEY88RWdcmvTVpBx+yjHSHF+3KOH9xttJW8uLC1qpZ7WpUu4mS3g7vNFCT2HUM4xXy4FozekKL1OuxCjhEP5FRpuxaMogyZRhNYdezIKgdcTv4WQ/JjuIJ6dbGaxFAKsRuNEGubm2X5r4fc4QYdzqLdBV3x/Tgdayo+ViHu73Kr6tHly717z8Nd7zVNNa6IAZW1DCniS00VdUxRmKElTUJXQ3beD6dzOi2nqAg7zxzG+z+STwhFuJNMUSWRy/GLDPwU8yqsK8kgEUZASF98IhSmeDrwzpd+rfluBUsCkkm4omG1Px3SRHSHxVJG00Fsbz5pH9+/pYsU9rb9f8cGSK+gaUIBLu7iv7q1bzMuqACToVlLRz3fiox13+iWIud2ViO0jGP4CipTZA8PIk1wwn0x70RPQOjOXreOm0P4TD7SHMEugRQe7xp5JU85e9+3nasUZd+uq5vUH96WEe+yxuWoJk5usgKYsPcmnoKHLqQ4iSMU/YEZIb90S96jv2bVNVcCT+S1TC+eP1swdgwM2szEFubhmztmaFopjFIXQogYshTjG3hQw+asQy0lPKewKw5iRMoR7h80ghaCuyEfIAhVRKFAaCnhaR5DJr7jbOf0UaT1L4BQIjm8Nxwkz0rapm/68eXTvFymtHuk0WS1bldJsRTvoVrRffPWqNOO8V9aaFSnfVqUpX0SJhoBbyJOEEjkJhibTRaQ2hEPSV5LUfvru4FBrjeLs2TMNH6Qk42UDCe7eq05rLtxUNuwaW1dXHJhNdArqmjNL4BNkZWZKjcIIJTn+jvwRRxQV0dMhsH8hF7f+c5xbH+Y82acq4DDSGXICjpIxCVvyz6HSrY8C9xou/cPN4lIgJKQqZOESsUTYdMuQKeRTKiJGG7hNi2iqBTy9uzqDyqXAS8gPdV745lOt1FNL/uKCtsxqLP2ceXGNb5eWV3V32VUdDhHCvXzlmo+N5jz1FPCWuVmViQnIdfCLtKdJ34i2Y0zPZEgqKAs4mnIJOCvu9HLUVHbP+dLdRlBZZx6HSerkVI3DgWNKDMUaFZjVoc6niL6ipiUHtz5pfXuP1NZK2MTZOp4Dw9QFHB5SkPIhQ9J68syJruwIokTIt0UUhiy4dA15KGBuwcuY0KJtIvTjIC0CQXfUpQkcNURaan+bR4AIVZ7i3jacosvw+ikps7C3wUtBz+Be+yXaD9UljwZdoi8NOhroPR0auTGv1W5SsF26vKxrhmMRjAa+XjWGAs0adZC5j15SKHNNP7R1acespyUorAkPf/2IGDb90GpzKqqFVkLPaa+kMLrpEU+O0b2hRGF846rwozV3BVzF5R4X1EFU5T5CMASkX9ITVB35fYn3Efiz5PBWBLxmGMyu86U213B9c2YS8IEjXfqQFX6DhHAbSnYLdxskxCtpaJ0TuHKI1jTb1FoUwDj5wZ+YAq5AIyW8I5EXiz/Q7YAFucJLeMKL4YfG3XtcaBg4UJRtSME2N88CEtEpO9NgoSmP+EEEyiQ4UxM9Cft0nsARWyEJW4aNFIeHN7ywVJj1B6LP425VYBZwwkhIzeUirMTF8Alc2bOiGiatSUFtGiEgadC3Iks2ngyNT5prk4HO3c9bF3A43LG/4/eo26gtodKV4pHm9OPbZroLVcaj4kUTRoDiDixPwuc3XOvf0VhqW2fuTHVIzEd8VIpxExmlxZatAMWnWGpEHYhgEZyS+kK0Q9isdKLF1h3kQNDVtxi14SOA4Wv8x9FZ+5d4WqceAnfHlSC22zphintOijxSGqCmIoIXOr3i0C7p10USIK4SSpSJpaWg4JW90JJYOogw4R0gBbAPcA7s70TAa76+KusTPosE9nQDb7rXcdi18qiMo2ATbRFLHddE8J5nFnecR+PvMHamXuDKmoJjHDUiKi/XZAIuiGp8tblC91rGPq7sCUQakyh901gFqIyOO8PWhGSw2q1vBk/C1eZMPG79uPo4zoP9nQv46zC5zrja/Dq4TneY0dSN2o6hvAKojMcAvmmnMbGNca5jPwFIDT5inhR2kt8IkjNumUkBJ0/Oewae9/T35XLgR58jYQ818/F+g+vAgYEDM86BQcBnPAMH8gcOTOLAIOCTuDP4DRyYcQ4MAj7jGTiQP3BgEgcGAZ/EncFv4MCMc2AQ8BnPwIH8gQOTODAI+CTuDH4DB2acA4OAz3gGDuQPHJjEgUHAJ3Fn8Bs4MOMcGAR8xjNwIH/gwCQODAI+iTuD38CBGefAIOAznoED+QMHJnFgEPBJ3Bn8Bg7MOAcGAZ/xDBzIHzgwiQODgE/izuA3cGDGOTAI+Ixn4ED+wIFJHBgEfBJ3Br+BAzPOgUHAZzwDB/IHDkziwCDgk7gz+A0cmHEODAI+4xk4kD9wYBIHBgGfxJ3Bb+DAjHNgEPAZz8CB/IEDkzgwCPgk7gx+AwdmnAODgM94Bg7kDxyYxIFBwCdxZ/AbODDjHBgEfMYzcCB/4MAkDgwCPok7g9/AgRnnwCDgM56BA/kDByZxYBDwSdwZ/AYOzDgHBgGf8QwcyB84MIkDg4BP4s7gN3Bgxjlw4fqnnzaffP11s3L9+ownZSB/4MB548CLpol/J1zG9rny3nvNra9+38zd//d3L9bv3m22nz9vPQfDwIGBAzPCgVqqK5IXl5ealZs3m/8Hclmt9VenhJEAAAAASUVORK5CYII=;" vertex="1" parent="1">
          <mxGeometry x="90" y="200" width="98" height="98" as="geometry" />
        </mxCell>
      </root>
    </mxGraphModel>
  </diagram>
</mxfile>
